<svg aria-hidden="true" style="width:0;height:0;position:absolute;overflow:hidden" xmlns="http://www.w3.org/2000/svg"><defs><symbol id="icon-menu" viewBox="0 0 38 24"><path stroke-linecap="round" stroke-width="3.429" d="M1.714 1.714H36M1.714 12H36M1.714 22.286H36"/></symbol><symbol id="icon-vector" viewBox="0 0 24 24"><path d="m9.707 18.707 6-6a.999.999 0 0 0 0-1.414l-6-6a.999.999 0 1 0-1.414 1.414L13.586 12l-5.293 5.293a.999.999 0 1 0 1.414 1.414z"/></symbol><symbol id="icon-modal-close" viewBox="0 0 32 32"><path d="m17.253 16 7.37-7.37a.89.89 0 0 0-1.256-1.252l.001-.001L16 14.747 8.63 7.369a.893.893 0 0 0-1.262 1.262l-.001-.001L14.745 16l-7.376 7.368a.89.89 0 1 0 1.252 1.256l.001-.001 7.376-7.37 7.37 7.37a.89.89 0 0 0 1.254-1.256l.001.001L17.253 16z"/></symbol><symbol id="icon-white-arrow" viewBox="0 0 82 32"><path d="M81.414 17.414a2 2 0 0 0 0-2.828L68.686 1.858a2 2 0 1 0-2.828 2.828L77.172 16 65.858 27.314a2 2 0 1 0 2.828 2.828l12.728-12.728zM0 18h80v-4H0v4z"/></symbol><symbol id="icon-arrow-middle" viewBox="0 0 82 32"><path d="M81.414 17.414c.362-.362.586-.862.586-1.414s-.224-1.052-.586-1.414L68.686 1.858a2 2 0 1 0-2.829 2.827l.001.001L77.172 16 65.858 27.314a2 2 0 0 0 2.829 2.827l-.001.001 12.728-12.728zM0 18h80v-4H0v4z"/></symbol><symbol id="icon-arrow-long" viewBox="0 0 102 32"><path d="M101.414 17.414c.362-.362.586-.862.586-1.414s-.224-1.052-.586-1.414L88.686 1.858a2 2 0 1 0-2.829 2.827l.001.001L97.172 16 85.858 27.314a2 2 0 0 0 2.829 2.827l-.001.001 12.728-12.728zM0 18h100v-4H0v4z"/></symbol><symbol id="icon-arrow-short" viewBox="0 0 69 32"><path d="M68.08 17.413c.361-.362.585-.861.585-1.413s-.224-1.052-.585-1.413L55.353 1.858a2.001 2.001 0 0 0-2.83 2.83l11.316 11.313-11.315 11.313a2.001 2.001 0 0 0 2.83 2.83l12.728-12.728zM0 18h66.667v-4H0v4z"/></symbol><symbol id="icon-facebook" viewBox="0 0 32 32"><path fill="#f8d24e" style="fill:var(--color1,#f8d24e)" d="M16 32c8.837 0 16-7.163 16-16S24.837 0 16 0 0 7.163 0 16s7.163 16 16 16z"/><path d="M20.446 15.981h-2.611V25.6H13.88v-9.619H12v-3.379h1.88v-2.187c0-1.564.739-4.014 3.991-4.014l2.929.012v3.281h-2.125c-.348 0-.839.176-.839.922v1.989h2.955l-.345 3.377z"/></symbol><symbol id="icon-github" viewBox="0 0 32 32"><path fill="#f8d24e" d="M32 16c0 8.837-7.163 16-16 16S0 24.837 0 16 7.163 0 16 0s16 7.163 16 16z"/><path d="M16 6.588c-5.17 0-9.412 4.242-9.412 9.412 0 4.411 3.096 8.419 7.206 9.412v-3.113a2.314 2.314 0 0 1-1.196-.031c-.556-.164-1.008-.535-1.344-1.099-.214-.36-.593-.753-.988-.724l-.097-1.098c.856-.073 1.594.521 2.033 1.258.196.328.421.52.709.605.278.083.577.043.925-.08.088-.697.408-.958.649-1.327-2.452-.365-3.429-1.666-3.816-2.692-.514-1.364-.238-3.066.67-4.143.018-.021.05-.075.038-.113-.417-1.259.09-2.3.109-2.41.481.141.559-.143 2.089.786l.264.159c.111.066.075.028.186.019a7.787 7.787 0 0 1 1.97-.276h.006a8.021 8.021 0 0 1 2.002.284l.086.009c-.008-.002.024-.006.075-.037 1.911-1.158 1.842-.779 2.355-.946.019.111.519 1.169.106 2.411-.056.171 1.656 1.739.708 4.256-.388 1.026-1.365 2.328-3.816 2.693.314.48.692.734.69 1.722v3.886c4.109-.993 7.206-5 7.206-9.412 0-5.17-4.242-9.412-9.412-9.412z"/></symbol><symbol id="icon-ice-crema-1" viewBox="0 0 32 32"><path fill="#f8d24e" style="fill:var(--color1,#f8d24e)" d="M16 0c8.837 0 16 7.163 16 16s-7.163 16-16 16S0 24.837 0 16 7.163 0 16 0z"/><path style="fill:var(--color3,#000)" d="M16.078 4.557c.058.155.173.902.173 1.133v.008c0 .589-.229 1.124-.603 1.522l.001-.001c-.323.347-.646.54-1.422.853-.863.352-1.22.564-1.624.964-.41.41-.651.858-.737 1.384-.097.573 0 .979.294 1.21l.149.115-.236.15c-.477.314-1.344 1.051-1.494 1.277-.289.434-.26.838.067 1.003l.154.077-.173.164c-.26.246-.314.415-.275.858.024.294.015.454-.052.694-.082.314-.082.318.024.54.106.217.405.492.675.607.13.058.134.077.164.52.014.256.038 1.07.058 1.812.015.742.049 1.422.077 1.504a.576.576 0 0 0 .198.26c.279.193.472.401.597.641.14.275.294.95.762 3.283l.328 1.638.202.193c.385.381 1.123.554 2.338.554 1.219 0 1.947-.169 2.333-.55l.207-.197.298-1.519c.66-3.321.718-3.504 1.234-3.914.159-.131.314-.289.342-.362.034-.082.068-.714.092-1.668.019-.848.049-1.687.068-1.866l.029-.323.314-.237c.395-.303.549-.578.549-1.002-.004-.501-.333-1.051-.93-1.542l-.285-.231.14-.198c.583-.804.217-1.918-.868-2.66l-.328-.227.12-.125c.535-.573.622-2.285.173-3.475-.269-.708-.887-1.48-1.644-2.049-.37-.28-1.393-.897-1.484-.897-.019 0-.019.034-.004.077zm1.388 1.683c.256.251.564.593.685.766.718 1.003.901 2.261.467 3.187-.173.376-.694.934-1.176 1.267-.737.511-2.396 1.37-3.552 1.841-1.86.757-2.941.902-3.066.405-.049-.188.092-.337.685-.733.534-.366 2.935-2.15 2.979-2.222.014-.019-.232.092-.54.246-1.046.531-1.542.429-1.518-.308.014-.535.4-1.142.934-1.489.136-.086.555-.28.941-.434 1.267-.511 1.653-.771 2.082-1.412.256-.381.535-1.085.554-1.384.005-.106.024-.188.038-.188s.232.207.486.458zm1.315 5.476c.352.197.718.535.877.8.28.477.136.954-.467 1.562-.655.666-1.773 1.302-3.003 1.706-1.133.371-2.217.545-3.77.598l-.964.034.627.038c.81.053 2.376.005 2.983-.092 1.615-.256 2.989-.767 3.972-1.47.222-.159.453-.289.516-.289.159 0 .853.666.993.945a.727.727 0 0 1 .082.429c-.072.641-.853.984-2.737 1.21-2.304.275-5.316.005-6.604-.588-.608-.28-.708-.439-.554-.863.048-.135.058-.294.038-.521-.024-.299-.019-.337.086-.448.241-.26.646-.41 2.131-.786.52-.134 1.229-.347 1.566-.472.819-.299 2.357-1.075 3.07-1.552.67-.444.767-.463 1.157-.241zm-6.401 5.899c1.012.294 1.909.381 3.577.347 1.253-.024 2.024-.101 3.137-.299.227-.038.424-.072.449-.072.053 0 .038 1.851-.019 2.338-.063.516-.203.916-.352 1.012-.154.101-.925.207-1.957.265-2.116.115-4.29 0-4.964-.27-.366-.149-.405-.342-.41-2.131 0-1.19.01-1.354.072-1.33.038.014.25.077.467.14zm1.143 4.098c.348.044.723.086.838.101l.208.024-.184.202c-.236.255-.598.766-.728 1.027-.149.299-.198.318-.419.198l-.188-.106-.106-.655a16.202 16.202 0 0 0-.156-.876l.02.119c-.044-.125-.087-.125.713-.033zm5.138-.053c0 .01-.024.134-.049.275-.029.144-.149.93-.269 1.749-.246 1.711-.41 2.516-.559 2.786-.207.362-.704.573-1.508.641-.314.024-1.258-.038-1.311-.087-.038-.043.79-1.07.921-1.137.12-.068.154-.058.563.154.477.252.719.29.719.131s-.125-.314-.434-.525c-.284-.203-.385-.319-.385-.454 0-.038.14-.255.308-.482s.414-.588.54-.805l.237-.39.216.029c.438.063.554.058.54-.038a1.142 1.142 0 0 0-.184-.304c-.092-.12-.164-.241-.164-.265 0-.092.448-.935.593-1.114.125-.154.227-.232.227-.164zm-3.012.385c.241.159 1.147.945 1.204 1.041.024.044-.906 1.499-1.089 1.706-.019.024-.12-.024-.221-.101a14.78 14.78 0 0 0-.777-.541l-.061-.037-.651-.429.39-.66c.694-1.162.68-1.142.829-1.142.077 0 .246.072.376.164zm1.826.173c-.169.207-.308.338-.366.338-.125 0-.328-.111-.67-.362l-.285-.207.57-.034c.251-.009.479-.025.706-.047l-.046.004c.386-.062.386-.058.092.309zm-3.644 2.319c.444.173 1.196.583 1.412.767.154.125.154.134.092.289a4.75 4.75 0 0 1-.31.533l.011-.017a8.357 8.357 0 0 0-.3.491l-.023.044c-.154.299-.202.323-.52.237-.342-.102-.525-.275-.621-.589-.131-.438-.338-1.677-.314-1.87.01-.072.212-.029.573.116z"/></symbol><symbol id="icon-ice-crema" viewBox="0 0 32 32"><path d="M16.108.107c.08.215.241 1.252.241 1.573v.011c0 .818-.318 1.561-.838 2.114l.001-.002c-.449.482-.898.749-1.975 1.185-1.198.489-1.694.783-2.256 1.339-.569.569-.904 1.191-1.024 1.922-.134.796 0 1.358.408 1.68l.207.16-.328.208c-.662.436-1.867 1.46-2.075 1.774-.402.603-.362 1.164.093 1.393l.214.107-.241.228c-.362.341-.436.576-.382 1.191.034.409.02.63-.073.964-.114.436-.114.442.033.75.148.301.563.683.938.844.18.08.187.107.228.723.02.356.053 1.486.08 2.517.02 1.031.068 1.975.107 2.089.034.12.161.281.276.361.388.268.656.556.829.891.195.382.409 1.319 1.058 4.559l.455 2.276.282.268c.535.529 1.56.77 3.247.77 1.693 0 2.704-.235 3.24-.764l.288-.274.414-2.109c.916-4.612.997-4.867 1.714-5.436.22-.181.436-.402.475-.502.047-.114.094-.991.127-2.316.027-1.178.068-2.343.094-2.591l.04-.448.436-.329c.548-.421.763-.803.763-1.392-.006-.696-.462-1.46-1.292-2.142l-.396-.321.195-.276c.81-1.117.301-2.664-1.205-3.694l-.455-.315.167-.174c.743-.796.864-3.173.241-4.827-.374-.984-1.232-2.055-2.283-2.845-.514-.388-1.934-1.245-2.06-1.245-.027 0-.027.047-.006.107zm1.928 2.337c.356.348.783.823.951 1.064.997 1.393 1.252 3.14.649 4.426-.241.522-.964 1.298-1.634 1.76-1.024.71-3.327 1.902-4.933 2.557-2.584 1.052-4.084 1.252-4.258.563-.068-.261.127-.468.951-1.018.742-.508 4.076-2.986 4.136-3.086.02-.027-.321.127-.749.341-1.452.737-2.142.596-2.108-.428.02-.743.556-1.587 1.298-2.068.188-.12.771-.388 1.307-.603 1.76-.709 2.296-1.071 2.892-1.961.356-.529.743-1.507.77-1.922.007-.147.034-.261.053-.261s.322.288.676.636zm1.827 7.606c.489.274.997.743 1.218 1.111.389.662.188 1.325-.649 2.169-.91.924-2.463 1.808-4.171 2.37-1.573.516-3.079.756-5.236.83l-1.339.047.871.053c1.124.074 3.3.007 4.143-.127 2.243-.356 4.151-1.065 5.516-2.042.308-.221.629-.402.716-.402.221 0 1.185.924 1.38 1.312.107.221.133.382.114.596-.1.891-1.186 1.366-3.803 1.68-3.2.382-7.384.007-9.172-.816-.844-.388-.984-.61-.77-1.198.067-.188.08-.409.053-.724-.034-.415-.027-.468.12-.622.335-.362.898-.569 2.96-1.092.723-.187 1.707-.482 2.175-.656 1.138-.415 3.274-1.493 4.264-2.156.931-.616 1.065-.643 1.607-.334zm-8.891 8.194c1.406.409 2.652.529 4.968.482 1.74-.033 2.812-.14 4.357-.415.316-.053.589-.1.623-.1.074 0 .053 2.571-.027 3.247-.087.716-.282 1.272-.489 1.406-.214.14-1.285.288-2.718.368-2.939.16-5.958 0-6.895-.375-.508-.207-.563-.476-.569-2.959 0-1.653.013-1.881.1-1.847.053.02.348.107.649.194zm1.587 5.69c.482.06 1.004.12 1.164.14l.289.034-.255.281c-.328.355-.83 1.064-1.011 1.426-.207.415-.275.442-.582.275l-.261-.148-.147-.91a23.34 23.34 0 0 0-.216-1.217l.028.165c-.06-.173-.121-.173.99-.046zm7.137-.074c0 .013-.034.187-.068.382-.04.2-.207 1.292-.374 2.429-.341 2.377-.569 3.494-.777 3.869-.288.502-.978.796-2.095.891-.436.034-1.748-.053-1.821-.121-.053-.06 1.098-1.486 1.279-1.58.167-.094.213-.08.782.213.663.349.998.403.998.181s-.174-.436-.603-.729c-.395-.282-.535-.443-.535-.63 0-.053.194-.355.428-.669s.575-.817.749-1.118l.329-.542.3.041c.609.087.77.08.75-.053-.013-.068-.127-.261-.255-.422-.127-.167-.228-.335-.228-.368 0-.127.622-1.299.824-1.547.174-.214.315-.322.315-.228zm-4.184.536c.334.221 1.593 1.313 1.673 1.446.034.06-1.258 2.082-1.513 2.37-.027.034-.167-.033-.308-.14a20.117 20.117 0 0 0-1.08-.752l-.085-.052-.904-.596.542-.917c.964-1.613.944-1.587 1.151-1.587.107 0 .341.1.523.228zm2.537.24c-.235.288-.428.469-.508.469-.174 0-.456-.154-.931-.502l-.396-.288.791-.047c.348-.013.665-.034.98-.065l-.064.005c.536-.087.536-.08.128.428zm-5.061 3.221c.616.241 1.66.81 1.962 1.065.214.173.214.187.127.401a6.654 6.654 0 0 1-.43.741l.015-.024a10.9 10.9 0 0 0-.417.682l-.032.061c-.213.415-.281.449-.723.329-.476-.141-.729-.382-.863-.818-.181-.609-.469-2.329-.436-2.597.013-.1.294-.04.796.161z"/></symbol><symbol id="icon-logo" viewBox="0 0 30 32"><path fill="#f8d24e" d="M15.226 17.082c1.415-3.784-1.515-5.855-3.457-7.217-.371-.278-.742-.538-1.044-.776a3.627 3.627 0 0 1-1.133-1.674l-.007-.026a3.48 3.48 0 0 1-.163-1.067c0-.345.049-.679.141-.995l-.006.025a.39.39 0 0 0-.115-.395.402.402 0 0 0-.412-.08l.003-.001c-.69.273-1.285.63-1.811 1.067l.011-.009a4.272 4.272 0 0 0-1.215 1.452l-.011.024a4.115 4.115 0 0 0-.442 1.857v.001a4.977 4.977 0 0 0-.952.978l-.01.014a3.579 3.579 0 0 0-.709 2.332v-.008a4.607 4.607 0 0 0-1.276 1.945l-.009.032a4.55 4.55 0 0 0-.124 2.376l-.005-.03a1.247 1.247 0 0 0-.609 1.065c0 .12.017.237.05.347l-.002-.009c.075.262.235.493.456.657s.49.252.767.25h.026v2.151c0 .219.089.428.245.583s.369.241.591.241h.65l1.058 9.04c.022.201.118.387.271.522s.351.21.556.21h4.404c.206 0 .404-.075.557-.21s.251-.32.275-.522l1.058-9.04h.65a.844.844 0 0 0 .591-.241.817.817 0 0 0 .245-.582v-2.152H14.347c.348 0 .663-.139.894-.365a1.24 1.24 0 0 0 .371-.883v-.014c0-.343-.142-.654-.371-.875l-.011.003zm-9.531-6.866c.535 1.98 2.599 2.759 4.482 3.455a.41.41 0 0 0 .493-.052.4.4 0 0 0 .124-.289l-.001-.028v.001a.393.393 0 0 0-.166-.295l-.001-.001a.402.402 0 0 0-.16-.068h-.003c-2.027-.758-3.939-1.464-4.084-3.488a3.32 3.32 0 0 1 .318-1.639l-.009.02a3.417 3.417 0 0 1 1.038-1.277l.009-.006c.283-.231.586-.438.906-.615a4.491 4.491 0 0 0 .002.779l-.001-.017c.047.615.216 1.181.484 1.686l-.011-.023c.281.531.648.98 1.087 1.343l.007.006c.308.26.691.527 1.114.812.977.692 2.087 1.465 2.792 2.511.441.619.704 1.39.704 2.223 0 .538-.11 1.051-.309 1.517l.01-.025h-1.641c-3.382 0-7.27-.922-8.038-3.506a2.94 2.94 0 0 1 .009-1.646l-.005.021a2.968 2.968 0 0 1 .87-1.377l.003-.003-.019-.018zM8.74 22.693l1.24 1.222-1.241 1.222-1.24-1.23 1.24-1.215zm2.844 3.21-1.025 1.01-1.24-1.222 1.241-1.219 1.076 1.057-.052.374zM8.74 28.706l-1.241-1.222 1.241-1.222 1.24 1.222-1.241 1.222zm-.568-3.008L6.931 26.92l-1.032-1.018-.044-.366 1.077-1.057 1.24 1.219zM6.36 27.484l-.249.245-.063-.556.312.311zm-.13 1.251.702-.692 1.363 1.354a.763.763 0 0 0 .026.081H6.316l-.086-.743zm4.322-.691.702.692-.086.732h-2.06l1.444-1.424zm.816-.315-.249-.245.316-.311-.067.556zm.372-3.199-.62-.622.787-.776-.167 1.398zm-1.192-1.178-1.177-1.156h2.354l-1.177 1.157zm-3.62 0-1.177-1.156h2.354l-1.177 1.157zm4.01 7.817h-4.4a.03.03 0 0 1-.026-.025l-.104-.879h4.664l-.1.879a.03.03 0 0 1-.029.026h-.003zm3.405-12.751h-1.292a.406.406 0 0 0-.311.102.392.392 0 0 0 0 .59.403.403 0 0 0 .271.103l.042-.002h-.002.46v2.152a.032.032 0 0 1-.01.019.032.032 0 0 1-.019.007H3.986a.032.032 0 0 1-.019-.007.032.032 0 0 1-.01-.019v-2.152h7.355a.408.408 0 0 0 .261-.129.394.394 0 0 0 0-.537.402.402 0 0 0-.259-.128h-8.17a.467.467 0 0 1-.353-.117.453.453 0 0 1-.15-.335v-.001c0-.133.058-.252.149-.334a.462.462 0 0 1 .31-.119l.044.002h-.002.843a.408.408 0 0 0 .261-.129.394.394 0 0 0 0-.537.408.408 0 0 0-.259-.129h-.744a3.919 3.919 0 0 1 .056-1.707l-.006.027c.15-.579.412-1.083.764-1.511l-.005.007c.26.798.928 1.889 2.599 2.756 1.57.808 3.65 1.222 6.178 1.222h1.485a.462.462 0 0 1 .352.117.453.453 0 0 1 .15.335v.001a.449.449 0 0 1-.149.334.462.462 0 0 1-.31.119l-.044-.002H14.341z"/><path fill="#f8d24e" style="fill:var(--color1,#f8d24e)" d="m16.964 29.152-.293.448.006.004.287-.453zm3.149.152.535-.012-.014-.62-.611.104.09.528zm.037 1.647.136.518.409-.108-.01-.422-.535.012zm-4.133.079.121-.522-.003-.001-.117.523zm-2.039-.911.347-.409h-.001l-.346.409zm-.738-1.673.536.003v-.003h-.536zm.256-1.172-.48-.236v.001l.48.235zm1.642-1.402.19.501.002-.001-.192-.5zm5.263-.136.534.041.035-.452-.44-.109-.129.52zm-.131 1.679-.099.526.587.111.046-.596-.534-.042zm-1.428-.687c-.804 0-1.48.086-1.973.303a1.616 1.616 0 0 0-.651.489 1.253 1.253 0 0 0-.255.76v.015-.001h1.071v-.013c0-.043.014-.083.038-.115a.57.57 0 0 1 .228-.156c.288-.127.783-.212 1.542-.212v-1.072zm-2.879 1.566c0 .551.247 1.006.709 1.307l.585-.897a.433.433 0 0 1-.223-.409h-1.071zm.714 1.31c.438.277 1.015.381 1.663.381v-1.071c-.559 0-.899-.095-1.089-.215l-.574.905zm1.663.381c.635 0 1.256-.051 1.863-.154l-.179-1.056c-.5.088-1.077.139-1.665.139h-.02.001v1.071zm1.238-.67.036 1.648 1.071-.024-.037-1.647-1.071.024zm.435 1.118a7.964 7.964 0 0 1-2.029.244v1.071c.821 0 1.589-.092 2.302-.279l-.273-1.036zm-2.029.244c-.757 0-1.369-.06-1.846-.169l-.241 1.044c.582.134 1.281.197 2.087.197v-1.071zm-1.85-.17c-.511-.114-.881-.236-1.127-.356l-.47.962c.353.172.814.316 1.363.439l.234-1.046zm-1.126-.356a3.264 3.264 0 0 1-.688-.444l.005.004-.693.817c.263.222.561.417.881.574l.026.011.47-.962zm-.685-.441c-.364-.308-.55-.709-.547-1.262l-1.071-.005c-.004.842.301 1.556.927 2.085l.692-.818zm-.547-1.264c0-.36.07-.669.202-.936l-.962-.471c-.211.43-.311.902-.311 1.407h1.071zm.201-.936c.243-.495.673-.88 1.351-1.137l-.38-1.002c-.884.336-1.549.886-1.933 1.666l.961.473zm1.354-1.138c.712-.273 1.507-.414 2.392-.414v-1.071c-.999 0-1.926.159-2.776.485l.384 1zm2.392-.414c.901 0 1.751.1 2.549.298l.258-1.04c-.89-.221-1.826-.33-2.807-.33v1.071zm2.144-.263-.13 1.679 1.068.084.131-1.679-1.068-.083zm.503 1.194a8.343 8.343 0 0 0-1.528-.161v1.071c.377 0 .818.046 1.328.142l.199-1.053zm5.226.855-.003.536.544.003-.005-.544-.536.005zm-.23-.695-.364.393.005.004.359-.397zm-1.334.053.371.386.004-.004-.375-.383zm-.324.632-.529-.087-.101.619.627.003.003-.536zm3.938 2.856.324.427.192-.146.018-.241-.534-.039zm-1.156.429-.115-.523h-.003l.118.523zm-4.017-.146-.182.504.004.001.178-.505zm-.915-.487-.332.42.003.002.003.002.326-.425zm-.612-.769-.48.237.001.002.479-.24zm.627-3.248zm4.896-.581.214-.49-.005-.002-.209.493zm1.23 1.13-.482.234.001.003.48-.237zm.209.937.534.038.001-.019v-.02h-.536zm-.063.863-.002.536.501.002.036-.499-.534-.039zm-4.242-.021.003-.536-.699-.003.178.676.518-.137zm.607.748-.263.466.002.001.261-.468zm3.253-.183v-.536h-.107l-.098.041.206.495zm.282 0 .534.039.043-.575h-.577v.536zm-1.613-1.523c-.004-.387-.094-.803-.406-1.087l-.72.794c-.006-.005.006.001.021.047a.87.87 0 0 1 .033.257l1.071-.011zm-.402-1.082c-.281-.261-.65-.347-1.013-.347v1.071c.208 0 .272.05.284.061l.729-.785zm-1.013-.348c-.399 0-.77.125-1.06.409l.75.766c.059-.058.144-.103.31-.103v-1.072zm-1.056.406a1.63 1.63 0 0 0-.481.923l-.001.009 1.057.174a.568.568 0 0 1 .166-.334l-.742-.773zm.044 1.555 1.889.01.006-1.071-1.889-.011-.006 1.071zm3.618 1.893c-.118.089-.404.213-.948.333l.23 1.046c.565-.125 1.05-.287 1.365-.525l-.647-.854zm-.951.334a6.544 6.544 0 0 1-1.496.175h-.002v1.071c.566 0 1.145-.068 1.735-.202l-.236-1.045zm-1.498.175c-.505 0-.921-.024-1.252-.068l-.143 1.062c.394.053.861.078 1.395.078v-1.071zm-1.252-.069a4.79 4.79 0 0 1-1.004-.247l.034.011-.357 1.01a5.96 5.96 0 0 0 1.184.288l.143-1.062zm-.966-.234a2.82 2.82 0 0 1-.772-.408l-.652.85c.305.234.661.42 1.058.565l.365-1.007zm-.766-.403a1.726 1.726 0 0 1-.461-.578l-.004-.01-.958.479c.186.377.442.694.753.945l.005.004.666-.84zm-.464-.586c-.113-.228-.18-.521-.18-.897h-1.071c0 .502.09.965.29 1.372l.96-.475zm-.18-.898c0-.377.068-.71.196-1.006l-.983-.426a3.57 3.57 0 0 0-.285 1.432h1.071zm.196-1.005c.135-.311.3-.542.487-.707l-.713-.8a3.036 3.036 0 0 0-.757 1.082l.983.426zm.488-.708c.576-.513 1.454-.811 2.719-.811v-1.071c-1.419 0-2.591.333-3.432 1.083l.713.799zm2.719-.811a4.08 4.08 0 0 1 1.611.323l.418-.986a5.069 5.069 0 0 0-2.01-.409h-.021.001v1.071zm1.606.321c.474.207.78.5.961.873l.963-.468c-.307-.632-.82-1.092-1.497-1.387l-.428.982zm.963.877c.1.202.154.432.154.699h1.071c0-.417-.086-.811-.265-1.174l-.96.474zm.156.659-.063.863 1.068.078.063-.863-1.068-.077zm.474.367-4.242-.021-.005 1.071 4.242.021.005-1.071zm-4.763.651c.126.475.432.834.862 1.078l.527-.933c-.212-.12-.31-.258-.352-.418l-1.036.274zm.863 1.079c.434.243.978.34 1.585.34v-1.071c-.509 0-.848-.084-1.062-.204l-.523.935zm1.585.34c.651 0 1.367-.176 2.136-.496l-.412-.989c-.688.287-1.26.414-1.724.414v1.071zm1.93-.455h.283v-1.071h-.282v1.071zm-.251-.576-.1 1.329 1.068.08.099-1.329-1.068-.08z"/></symbol><symbol id="icon-telegram" viewBox="0 0 32 32"><path fill="#f8d24e" d="M32 16c0 8.837-7.163 16-16 16S0 24.837 0 16 7.163 0 16 0s16 7.163 16 16z"/><path d="m12.869 18.376-.318 4.169c.455 0 .651-.183.888-.401l2.131-1.901 4.414 3.018c.809.421 1.38.199 1.598-.696l2.899-12.673c.257-1.117-.433-1.554-1.222-1.28L6.227 14.698c-1.162.422-1.144 1.026-.198 1.301l4.355 1.264 10.115-5.907c.475-.295.908-.132.552.163l-8.182 6.856z"/></symbol><symbol id="icon-cow" viewBox="0 0 23 24"><path d="M4.501.583c-.19.165-.734 1.3-.93 1.919-.232.768-.312 1.344-.28 2.139.042 1.135.328 1.996.956 2.895.164.236.296.439.296.455 0 .011-.1.022-.227.022-.544 0-1.564.181-2.346.417-1.242.373-1.971 1.025-1.971 1.755 0 .258.232.696.481.921.481.433 1.532.845 2.663 1.042.391.071 1.553.192 1.812.197.048 0 .063.252.063 1.08 0 .713.026 1.267.079 1.607.19 1.217.782 2.506 1.564 3.416l.269.313-.18.291a2.243 2.243 0 0 0-.396 1.19c-.079 1.119.618 2.111 1.965 2.808 2.568 1.333 6.556.812 8.051-1.053.729-.91.814-1.952.238-2.895l-.18-.291.322-.389a6.774 6.774 0 0 0 1.289-2.363c.248-.779.343-1.53.343-2.72 0-.543.016-.993.042-.993a23.809 23.809 0 0 0 1.78-.197c1.136-.197 2.166-.603 2.663-1.042.248-.225.481-.663.481-.921 0-.812-.824-1.47-2.356-1.864-.502-.132-1.448-.291-1.907-.318l-.217-.016.238-.329c.296-.4.666-1.179.808-1.689.402-1.475.153-3.192-.708-4.831-.359-.68-.608-.839-.898-.57-.111.104-.159.247-.264.762-.328 1.64-.935 2.939-1.823 3.899l-.391.428H7.472l-.349-.378C6.257 4.326 5.628 2.977 5.3 1.332 5.194.817 5.147.674 5.036.57c-.174-.159-.343-.154-.539.016zm.676 3.252c.28.614.629 1.19 1.041 1.722l.328.422-.343.258a3.475 3.475 0 0 0-.856.998l-.1.181-.254-.345c-.866-1.195-1.083-2.66-.623-4.179.222-.735.217-.729.417-.093.095.307.275.773.391 1.036zm13.752-1.157c.217.653.301 1.174.301 1.848 0 .998-.264 1.843-.819 2.599l-.248.34-.185-.313a3.274 3.274 0 0 0-.925-1.014 1.295 1.295 0 0 1-.254-.197c0-.016.1-.143.227-.28.586-.653 1.215-1.826 1.527-2.835.095-.313.19-.57.206-.57s.095.192.169.422zM16.23 6.687c.586.247 1.146.954 1.236 1.552.048.329.158.537.301.57.063.011.502.049.972.082 1.669.11 2.985.466 3.545.954.259.23.232.422-.079.658-.623.472-1.971.828-3.344.888-.909.038-1.099.066-1.22.192-.09.093-.1.192-.1 1.185 0 1.344-.069 2.117-.238 2.742-.238.85-.708 1.755-1.257 2.396l-.227.263-.47-.28a5.834 5.834 0 0 0-1.743-.707c-2.002-.477-4.216-.186-5.706.751l-.343.219-.217-.258a7.972 7.972 0 0 1-.946-1.503c-.407-.943-.528-1.711-.528-3.4 0-1.64.085-1.519-1.131-1.585-1.553-.082-2.737-.362-3.482-.834-.549-.351-.46-.664.306-1.031.734-.356 1.743-.57 3.143-.658 1.088-.071 1.115-.088 1.215-.614.148-.795.734-1.453 1.474-1.662.185-.055 1.22-.066 4.39-.06l4.147.011.301.126zm-2.969 11.351c1.294.318 2.261.91 2.679 1.645.1.17.143.346.164.614.021.334.005.417-.122.691-.586 1.245-2.742 2.067-4.934 1.881-2.636-.219-4.369-1.689-3.688-3.131.37-.779 1.622-1.525 2.943-1.744.217-.033.433-.071.475-.082s.518-.011 1.057 0c.734.016 1.088.049 1.426.126z"/><path d="M8.02 9.434c-.328.11-.549.252-.845.548-.259.247-.28.537-.063.713.201.165.391.143.634-.071.306-.269.544-.378.84-.378.296-.005.523.099.84.378.243.214.433.236.634.071.106-.088.137-.159.137-.324 0-.17-.037-.247-.222-.433-.523-.526-1.3-.729-1.955-.505zM14.18 9.429c-.338.126-.771.411-.946.625-.169.208-.174.444 0 .62.174.186.386.175.639-.033.623-.515 1.088-.532 1.664-.055.148.126.317.225.37.225.259 0 .47-.23.47-.505 0-.175-.438-.581-.835-.773-.438-.214-.961-.252-1.363-.104zM8.786 19.579c-.153.148-.206.362-.127.532.058.137.148.192.513.291.164.044.232.099.291.236.074.181.079.181.486.197l.407.016v-.154c-.005-.219-.127-.537-.285-.757-.185-.252-.507-.417-.872-.45-.248-.022-.312-.011-.412.088zM13.831 19.541c-.264.071-.645.428-.75.707a1.865 1.865 0 0 0-.1.499c-.011.236.011.291.137.406.312.274.724.06.724-.378 0-.214.158-.362.438-.417.296-.055.402-.176.407-.455 0-.367-.328-.51-.856-.362z"/></symbol><symbol id="icon-weight" viewBox="0 0 24 24"><path d="M10.633.41C7.652.852 5.198 2.507 4.295 4.674c-.288.685-.366 1.105-.366 1.93.006.609.028.836.122 1.164.194.647.332.976.621 1.439l.266.431-.299.367c-2.366 2.943-2.626 7.083-.654 10.345.737 1.224 1.939 2.426 3.114 3.127l.349.205 9.557-.081.227-.124c.792-.447 1.911-1.445 2.537-2.253a9.453 9.453 0 0 0 1.817-4.215c.089-.555.089-2.199-.006-2.722-.283-1.612-.886-2.992-1.839-4.215-.183-.232-.327-.426-.327-.442 0-.011.1-.178.216-.367.271-.431.515-.986.648-1.472.15-.539.15-1.887 0-2.426-.532-1.914-2.127-3.509-4.382-4.388-.632-.248-1.712-.512-2.41-.598-.648-.075-2.249-.059-2.853.032zm3.374.879c2.959.577 5.125 2.388 5.524 4.62.089.501.033 1.353-.116 1.827a5.81 5.81 0 0 1-.754 1.472c-.133.189-.244.404-.244.474s.116.253.283.437c1.385 1.536 2.116 3.461 2.116 5.542-.006 2.366-.914 4.442-2.665 6.07-.299.28-.726.631-.953.782l-.416.28-9.158.038-.355-.226c-1.285-.836-2.443-2.216-3.086-3.682a8.276 8.276 0 0 1-.233-5.935c.349-1.003.814-1.822 1.524-2.685.288-.345.421-.55.421-.647 0-.081-.144-.345-.332-.62-.665-.965-.936-2.038-.776-3.051.166-1.024.632-1.865 1.49-2.701 1.119-1.084 2.681-1.8 4.515-2.07.759-.113 2.438-.07 3.213.075z"/><path d="M10.882 2.237C8.61 2.609 6.832 3.87 6.25 5.525c-.133.372-.155.517-.155 1.051s.022.679.155 1.051a4.4 4.4 0 0 0 .343.733c.288.464.416.48.986.135a8.953 8.953 0 0 1 2.853-1.116c.687-.14 2.006-.194 2.754-.108a9.119 9.119 0 0 1 3.452 1.154c.288.167.582.307.654.307.421 0 .958-1.213.958-2.156 0-2.097-2.006-3.892-4.848-4.339-.604-.097-1.939-.097-2.521 0zm2.743.863c.953.205 1.828.593 2.488 1.105.886.685 1.363 1.639 1.285 2.561-.028.367-.166.862-.249.916-.022.011-.332-.119-.687-.291a11.014 11.014 0 0 0-2.421-.825c-.515-.108-.731-.124-1.884-.119-1.136 0-1.374.016-1.867.119a9.977 9.977 0 0 0-2.338.798c-.826.394-.781.399-.931-.086-.194-.631-.072-1.466.305-2.097.199-.334.748-.889 1.147-1.164.759-.523 1.424-.76 2.853-1.019.294-.054 1.922.022 2.299.102zM12.722 10.054c-.155.194-.155.377.006.534.105.102.211.129.593.156.742.054 1.452.27 2.089.636.454.27 1.147.922 1.457 1.391.46.674.776 1.639.776 2.35 0 .248.022.323.139.431.177.178.41.178.582 0 .122-.124.127-.156.094-.685-.155-2.609-2.388-4.787-5.058-4.932l-.554-.032-.122.151z"/></symbol><symbol id="icon-ice-crema" viewBox="0 0 24 24"><path d="M12.081.08c.06.161.181.939.181 1.18 0 .597-.221 1.155-.628 1.592-.336.361-.673.562-1.481.889-.899.367-1.27.587-1.692 1.004-.427.427-.678.894-.768 1.441-.1.597 0 1.019.306 1.26l.156.121-.246.156c-.497.326-1.401 1.095-1.556 1.331-.301.452-.271.874.07 1.044l.161.08-.181.171c-.271.256-.326.432-.286.894.025.306.015.472-.055.723-.085.326-.085.331.025.562.11.226.422.512.703.633.136.06.141.08.171.542.015.266.04 1.115.06 1.888.015.773.05 1.481.08 1.567.025.09.12.211.206.271.291.201.492.417.623.668.146.286.306.989.793 3.419l.341 1.707.211.201c.402.397 1.17.577 2.435.577 1.27 0 2.028-.176 2.43-.572l.216-.206.311-1.582c.688-3.459.748-3.65 1.285-4.077.166-.136.326-.301.356-.377.035-.085.07-.743.095-1.737.02-.884.05-1.757.07-1.943l.03-.336.326-.246c.412-.316.572-.603.572-1.044-.005-.522-.346-1.095-.969-1.607l-.296-.241.146-.206c.608-.838.226-1.998-.904-2.772l-.341-.236.126-.131c.557-.597.648-2.38.181-3.62-.281-.738-.924-1.541-1.712-2.134C13.245.643 12.181 0 12.086 0c-.02 0-.02.035-.005.08zm1.446 1.753c.266.261.587.618.713.798.748 1.044.939 2.355.487 3.319-.181.392-.723.974-1.225 1.32-.768.532-2.495 1.426-3.7 1.918-1.938.788-3.063.939-3.193.422-.05-.196.095-.351.713-.763.557-.382 3.058-2.239 3.103-2.315.015-.02-.241.095-.562.256-1.09.552-1.607.447-1.582-.321.015-.557.417-1.19.974-1.551.141-.09.577-.291.979-.452 1.321-.532 1.722-.803 2.169-1.471.266-.397.557-1.13.577-1.441.005-.11.025-.196.04-.196s.241.216.507.477zm1.371 5.703c.367.206.748.557.914.833.291.497.141.994-.487 1.627-.683.693-1.848 1.356-3.128 1.777-1.18.387-2.31.567-3.926.623l-1.004.035.653.04c.844.055 2.475.005 3.108-.095 1.682-.266 3.113-.798 4.137-1.531.231-.166.472-.301.537-.301.166 0 .889.693 1.034.984.08.166.1.286.085.447-.075.668-.889 1.024-2.852 1.26-2.4.286-5.538.005-6.879-.613-.633-.291-.738-.457-.577-.899.05-.141.06-.306.04-.542-.025-.311-.02-.351.09-.467.251-.271.673-.427 2.219-.818a21.72 21.72 0 0 0 1.632-.492c.854-.311 2.455-1.12 3.198-1.617.698-.462.798-.482 1.205-.251zM8.23 13.682c1.054.306 1.988.397 3.726.362 1.305-.025 2.109-.105 3.269-.311.236-.04.442-.075.467-.075.055 0 .04 1.928-.02 2.435-.065.537-.211.954-.367 1.054-.161.105-.964.216-2.038.276-2.204.12-4.469 0-5.172-.281-.382-.156-.422-.356-.427-2.219 0-1.24.01-1.411.075-1.386.04.015.261.08.487.146zm1.19 4.268c.361.045.753.09.874.105l.216.025-.191.211c-.246.266-.623.798-.758 1.069-.156.311-.206.331-.437.206l-.196-.11-.11-.683c-.06-.372-.126-.728-.141-.788-.045-.131-.09-.131.743-.035zm5.352-.055c0 .01-.025.141-.05.286-.03.151-.156.969-.281 1.823-.256 1.782-.427 2.621-.582 2.902-.216.377-.733.597-1.572.668-.326.025-1.31-.04-1.366-.09-.04-.045.823-1.115.959-1.185.126-.07.161-.06.587.161.497.261.748.301.748.136s-.131-.326-.452-.547c-.296-.211-.402-.331-.402-.472 0-.04.146-.266.321-.502s.432-.613.562-.838l.246-.407.226.03c.457.065.577.06.562-.04a1.168 1.168 0 0 0-.191-.316c-.095-.126-.171-.251-.171-.276 0-.095.467-.974.618-1.16.131-.161.236-.241.236-.171zm-3.138.401c.251.166 1.195.984 1.255 1.084.025.045-.944 1.562-1.135 1.777-.02.025-.126-.025-.231-.105a16.912 16.912 0 0 0-.874-.603l-.678-.447.407-.688c.723-1.21.708-1.19.864-1.19.08 0 .256.075.392.171zm1.903.181c-.176.216-.321.351-.382.351-.131 0-.341-.115-.698-.377l-.296-.216.592-.035c.321-.015.633-.035.688-.045.402-.065.402-.06.095.321zm-3.795 2.415c.462.181 1.245.608 1.471.798.161.131.161.141.095.301-.04.09-.176.331-.311.537a8.93 8.93 0 0 0-.336.557c-.161.311-.211.336-.542.246-.356-.105-.547-.286-.648-.613-.136-.457-.351-1.747-.326-1.948.01-.075.221-.03.598.121z"/></symbol></defs></svg>