<svg aria-hidden="true" style="position: absolute; width: 0; height: 0; overflow: hidden;" version="1.1"
    xmlns="http://www.w3.org/2000/svg" xmlns:xlink="http://www.w3.org/1999/xlink">
    <defs>
        <!--Mobile menu  -->
        <symbol id="icon-menu" viewBox="0 0 38 24">
            <path stroke-linejoin="miter" stroke-linecap="round" stroke-miterlimit="4" stroke-width="3.4286"
                d="M1.714 1.714h34.286"></path>
            <path stroke-linejoin="miter" stroke-linecap="round" stroke-miterlimit="4" stroke-width="3.4286"
                d="M1.714 12h34.286"></path>
            <path stroke-linejoin="miter" stroke-linecap="round" stroke-miterlimit="4" stroke-width="3.4286"
                d="M1.714 22.286h34.286"></path>
        </symbol>
        <!-- Cross modal window -->
        <symbol id="icon-modal-close" viewBox="0 0 32 32">
            <path
                d="M17.253 16l7.37-7.37c0.13-0.154 0.209-0.354 0.209-0.573 0-0.491-0.398-0.89-0.89-0.89-0.219 0-0.42 0.079-0.575 0.211l0.001-0.001-7.368 7.37-7.37-7.378c-0.159-0.147-0.372-0.237-0.606-0.237-0.493 0-0.893 0.4-0.893 0.893 0 0.234 0.090 0.447 0.237 0.606l-0.001-0.001 7.378 7.37-7.376 7.368c-0.194 0.164-0.316 0.408-0.316 0.68 0 0.491 0.398 0.89 0.89 0.89 0.272 0 0.515-0.122 0.678-0.314l0.001-0.001 7.376-7.37 7.37 7.37c0.155 0.133 0.357 0.214 0.579 0.214 0.491 0 0.89-0.398 0.89-0.89 0-0.222-0.081-0.424-0.215-0.58l0.001 0.001-7.37-7.368z">
            </path>
        </symbol>
        <!-- White arrow -->
        <symbol id="icon-arrow" viewBox="0 0 82 32">
            <path d="M81.414 17.414c0.362-0.362 0.586-0.862 0.586-1.414s-0.224-1.052-0.586-1.414l-12.728-12.728c-0.364-0.377-0.874-0.611-1.439-0.611-1.105 0-2 0.895-2 2 0 0.565 0.234 1.074 0.61 1.438l0.001 0.001 11.314 11.314-11.314 11.314c-0.347 0.359-0.561 0.849-0.561 1.389 0 1.105 0.895 2 2 2 0.54 0 1.030-0.214 1.39-0.562l-0.001 0.001 12.728-12.728zM0 18h80v-4h-80v4z"></path>
        </symbol>
        <!-- Icon arrow -->
        <!-- arrow hover -->
        <symbol id="icon-arrow-middle" viewBox="0 0 82 32">
            <path
                d="M81.414 17.414c0.362-0.362 0.586-0.862 0.586-1.414s-0.224-1.052-0.586-1.414l-12.728-12.728c-0.364-0.377-0.874-0.611-1.439-0.611-1.105 0-2 0.895-2 2 0 0.565 0.234 1.074 0.61 1.438l0.001 0.001 11.314 11.314-11.314 11.314c-0.347 0.359-0.561 0.849-0.561 1.389 0 1.105 0.895 2 2 2 0.54 0 1.030-0.214 1.39-0.562l-0.001 0.001 12.728-12.728zM0 18h80v-4h-80v4z">
            </path>
        </symbol>
        <!-- arrow focus -->
        <symbol id="icon-arrow-long" viewBox="0 0 102 32">
            <path
                d="M101.414 17.414c0.362-0.362 0.586-0.862 0.586-1.414s-0.224-1.052-0.586-1.414l-12.728-12.728c-0.364-0.377-0.874-0.611-1.439-0.611-1.105 0-2 0.895-2 2 0 0.565 0.234 1.074 0.61 1.438l0.001 0.001 11.314 11.314-11.314 11.314c-0.347 0.359-0.561 0.849-0.561 1.389 0 1.105 0.895 2 2 2 0.54 0 1.030-0.214 1.39-0.562l-0.001 0.001 12.728-12.728zM0 18h100v-4h-100v4z">
            </path>
        </symbol>
        <!-- arrow normal -->
        <symbol id="icon-arrow-short" viewBox="0 0 69 32">
            <path
                d="M68.080 17.413c0.361-0.362 0.585-0.861 0.585-1.413s-0.224-1.052-0.585-1.413l-12.727-12.729c-0.362-0.362-0.862-0.586-1.415-0.586-1.105 0-2.001 0.896-2.001 2.001 0 0.552 0.224 1.053 0.586 1.415l11.316 11.313-11.315 11.313c-0.362 0.362-0.586 0.862-0.586 1.415 0 1.105 0.896 2.001 2.001 2.001 0.552 0 1.053-0.224 1.415-0.586l12.728-12.728zM0 18h66.667v-4h-66.667v4z">
            </path>
        </symbol>
<svg aria-hidden="true" style="position: absolute; width: 0; height: 0; overflow: hidden;" version="1.1" xmlns="http://www.w3.org/2000/svg" xmlns:xlink="http://www.w3.org/1999/xlink">
<defs>
<!--Mobile menu  -->
<symbol id="burger-menu" viewBox="0 0 32 32">
<path fill="none" stroke-linejoin="miter" stroke-linecap="round" stroke-miterlimit="4" stroke-width="2" d="M6 10h20"></path>
<path fill="none" stroke-linejoin="miter" stroke-linecap="round" stroke-miterlimit="4" stroke-width="2" d="M6 16h20"></path>
<path fill="none"   stroke-linejoin="miter" stroke-linecap="round" stroke-miterlimit="4" stroke-width="2" d="M6 22h20"></path>
</symbol>
<symbol id="icon-menu" viewBox="0 0 38 24">
<path  stroke-linejoin="miter" stroke-linecap="round" stroke-miterlimit="4" stroke-width="3.4286" d="M1.714 1.714h34.286"></path>
<path  stroke-linejoin="miter" stroke-linecap="round" stroke-miterlimit="4" stroke-width="3.4286" d="M1.714 12h34.286"></path>
<path  stroke-linejoin="miter" stroke-linecap="round" stroke-miterlimit="4" stroke-width="3.4286" d="M1.714 22.286h34.286"></path>
</symbol>
<!-- Arrow button header -->
  <symbol id="icon-vector" viewBox="0 0 32 32">
  <path d="M23.473 14.214c0.986 0.986 0.986 2.491 0 3.479-0.050 0.043-0.050 0.043-0.050 0.043l-11.457 11.507c-0.986 0.936-2.486 0.936-3.471 0-0.943-0.986-0.943-2.491 0-3.471l9.859-9.816-9.766-9.771c-0.936-0.936-0.936-2.491 0-3.429 0.943-0.936 2.491-0.936 3.429 0l11.457 11.459z">
  </path>
  </symbol>
<!-- Cross modal window -->
<symbol id="icon-modal-close" viewBox="0 0 32 32">
<path d="M17.253 16l7.37-7.37c0.13-0.154 0.209-0.354 0.209-0.573 0-0.491-0.398-0.89-0.89-0.89-0.219 0-0.42 0.079-0.575 0.211l0.001-0.001-7.368 7.37-7.37-7.378c-0.159-0.147-0.372-0.237-0.606-0.237-0.493 0-0.893 0.4-0.893 0.893 0 0.234 0.090 0.447 0.237 0.606l-0.001-0.001 7.378 7.37-7.376 7.368c-0.194 0.164-0.316 0.408-0.316 0.68 0 0.491 0.398 0.89 0.89 0.89 0.272 0 0.515-0.122 0.678-0.314l0.001-0.001 7.376-7.37 7.37 7.37c0.155 0.133 0.357 0.214 0.579 0.214 0.491 0 0.89-0.398 0.89-0.89 0-0.222-0.081-0.424-0.215-0.58l0.001 0.001-7.37-7.368z"></path>
</symbol>
<!-- White arrow -->
<symbol id="icon-white-arrow" viewBox="0 0 82 32">
<path d="M81.414 17.414c0.781-0.781 0.781-2.047 0-2.828l-12.728-12.728c-0.781-0.781-2.047-0.781-2.828 0s-0.781 2.047 0 2.828l11.314 11.314-11.314 11.314c-0.781 0.781-0.781 2.047 0 2.828s2.047 0.781 2.828 0l12.728-12.728zM0 18h80v-4h-80v4z"></path>
</symbol>
<!-- Icon arrow -->
<!-- arrow normal -->
<symbol id="icon-arrow-short" viewBox="0 0 41 16"><path d="M40.707 8.707a1 1 0 0 0 0-1.414L34.343.929a1 1 0 1 0-1.414 1.414L38.586 8l-5.657 5.657a1 1 0 0 0 1.414 1.414l6.364-6.364ZM0 9h40V7H0v2Z"/></symbol>
<!-- arrow hover -->
<symbol id="icon-arrow-hover" viewBox="0 0 32 32"><path d="M31.816 16.444a.627.627 0 0 0 0-.887l-3.993-3.993a.627.627 0 1 0-.887.887L30.485 16l-3.549 3.549a.627.627 0 1 0 .887.887l3.993-3.993zM0 16.627h31.373v-1.255H0v1.255z"/></symbol>
<!-- arrow focus -->
<symbol id="icon-arrow-focus" viewBox="0 0 32 32"><path d="M31.422 16.653a.923.923 0 0 0 0-1.305l-5.874-5.874a.922.922 0 1 0-1.305 1.305l5.222 5.222-5.222 5.222a.923.923 0 0 0 1.305 1.305l5.874-5.874zM0 16.923h30.769v-1.846H0v1.846z"/></symbol>
<!-- Icon facebook -->
<symbol id="icon-facebook" viewBox="0 0 32 32">
<path fill="#f8d24e" style="fill: var(--color1, #f8d24e)" d="M16 32c8.837 0 16-7.163 16-16s-7.163-16-16-16-16 7.163-16 16 7.163 16 16 16z"></path>
<path  d="M20.446 15.981h-2.611v9.619h-3.955v-9.619h-1.88v-3.379h1.88v-2.187c0-1.564 0.739-4.014 3.991-4.014l2.929 0.012v3.281h-2.125c-0.348 0-0.839 0.176-0.839 0.922v1.989h2.955l-0.345 3.377z"></path>
</symbol>
        <!-- Icon github -->
        <symbol id="icon-github" viewBox="0 0 32 32">
<path fill="#f8d24e" d="M32 16c0 8.837-7.163 16-16 16s-16-7.163-16-16c0-8.837 7.163-16 16-16s16 7.163 16 16z"></path>
<path d="M16 6.588c-5.17 0-9.412 4.242-9.412 9.412 0 4.411 3.096 8.419 7.206 9.412v-3.113c-0.408 0.088-0.781 0.091-1.196-0.031-0.556-0.164-1.008-0.535-1.344-1.099-0.214-0.36-0.593-0.753-0.988-0.724l-0.097-1.098c0.856-0.073 1.594 0.521 2.033 1.258 0.196 0.328 0.421 0.52 0.709 0.605 0.278 0.083 0.577 0.043 0.925-0.080 0.088-0.697 0.408-0.958 0.649-1.327-2.452-0.365-3.429-1.666-3.816-2.692-0.514-1.364-0.238-3.066 0.67-4.143 0.018-0.021 0.050-0.075 0.038-0.113-0.417-1.259 0.090-2.3 0.109-2.41 0.481 0.141 0.559-0.143 2.089 0.786l0.264 0.159c0.111 0.066 0.075 0.028 0.186 0.019 0.59-0.166 1.269-0.266 1.97-0.276l0.006-0c0.668 0.008 1.336 0.104 2.002 0.284l0.086 0.009c-0.008-0.002 0.024-0.006 0.075-0.037 1.911-1.158 1.842-0.779 2.355-0.946 0.019 0.111 0.519 1.169 0.106 2.411-0.056 0.171 1.656 1.739 0.708 4.256-0.388 1.026-1.365 2.328-3.816 2.693 0.314 0.48 0.692 0.734 0.69 1.722v3.886c4.109-0.993 7.206-5 7.206-9.412 0-5.17-4.242-9.412-9.412-9.412z"></path>
</symbol>
        <!-- Icon ice-cream crema -->
        <symbol id="icon-ice-crema-1" viewBox="0 0 32 32">
            <path fill="#f8d24e" style="fill: var(--color1, #f8d24e)"
                d="M16 0c8.837 0 16 7.163 16 16s-7.163 16-16 16c-8.837 0-16-7.163-16-16s7.163-16 16-16z"></path>
            <path fill="#000" style="fill: var(--color3, #000)"
                d="M16.078 4.557c0.058 0.155 0.173 0.902 0.173 1.133 0 0.002 0 0.005 0 0.008 0 0.589-0.229 1.124-0.603 1.522l0.001-0.001c-0.323 0.347-0.646 0.54-1.422 0.853-0.863 0.352-1.22 0.564-1.624 0.964-0.41 0.41-0.651 0.858-0.737 1.384-0.097 0.573 0 0.979 0.294 1.21l0.149 0.115-0.236 0.15c-0.477 0.314-1.344 1.051-1.494 1.277-0.289 0.434-0.26 0.838 0.067 1.003l0.154 0.077-0.173 0.164c-0.26 0.246-0.314 0.415-0.275 0.858 0.024 0.294 0.015 0.454-0.052 0.694-0.082 0.314-0.082 0.318 0.024 0.54 0.106 0.217 0.405 0.492 0.675 0.607 0.13 0.058 0.134 0.077 0.164 0.52 0.014 0.256 0.038 1.070 0.058 1.812 0.015 0.742 0.049 1.422 0.077 1.504 0.024 0.086 0.116 0.202 0.198 0.26 0.279 0.193 0.472 0.401 0.597 0.641 0.14 0.275 0.294 0.95 0.762 3.283l0.328 1.638 0.202 0.193c0.385 0.381 1.123 0.554 2.338 0.554 1.219 0 1.947-0.169 2.333-0.55l0.207-0.197 0.298-1.519c0.66-3.321 0.718-3.504 1.234-3.914 0.159-0.131 0.314-0.289 0.342-0.362 0.034-0.082 0.068-0.714 0.092-1.668 0.019-0.848 0.049-1.687 0.068-1.866l0.029-0.323 0.314-0.237c0.395-0.303 0.549-0.578 0.549-1.002-0.004-0.501-0.333-1.051-0.93-1.542l-0.285-0.231 0.14-0.198c0.583-0.804 0.217-1.918-0.868-2.66l-0.328-0.227 0.12-0.125c0.535-0.573 0.622-2.285 0.173-3.475-0.269-0.708-0.887-1.48-1.644-2.049-0.37-0.28-1.393-0.897-1.484-0.897-0.019 0-0.019 0.034-0.004 0.077zM17.466 6.24c0.256 0.251 0.564 0.593 0.685 0.766 0.718 1.003 0.901 2.261 0.467 3.187-0.173 0.376-0.694 0.934-1.176 1.267-0.737 0.511-2.396 1.37-3.552 1.841-1.86 0.757-2.941 0.902-3.066 0.405-0.049-0.188 0.092-0.337 0.685-0.733 0.534-0.366 2.935-2.15 2.979-2.222 0.014-0.019-0.232 0.092-0.54 0.246-1.046 0.531-1.542 0.429-1.518-0.308 0.014-0.535 0.4-1.142 0.934-1.489 0.136-0.086 0.555-0.28 0.941-0.434 1.267-0.511 1.653-0.771 2.082-1.412 0.256-0.381 0.535-1.085 0.554-1.384 0.005-0.106 0.024-0.188 0.038-0.188s0.232 0.207 0.486 0.458zM18.781 11.716c0.352 0.197 0.718 0.535 0.877 0.8 0.28 0.477 0.136 0.954-0.467 1.562-0.655 0.666-1.773 1.302-3.003 1.706-1.133 0.371-2.217 0.545-3.77 0.598l-0.964 0.034 0.627 0.038c0.81 0.053 2.376 0.005 2.983-0.092 1.615-0.256 2.989-0.767 3.972-1.47 0.222-0.159 0.453-0.289 0.516-0.289 0.159 0 0.853 0.666 0.993 0.945 0.077 0.159 0.097 0.275 0.082 0.429-0.072 0.641-0.853 0.984-2.737 1.21-2.304 0.275-5.316 0.005-6.604-0.588-0.608-0.28-0.708-0.439-0.554-0.863 0.048-0.135 0.058-0.294 0.038-0.521-0.024-0.299-0.019-0.337 0.086-0.448 0.241-0.26 0.646-0.41 2.131-0.786 0.52-0.134 1.229-0.347 1.566-0.472 0.819-0.299 2.357-1.075 3.070-1.552 0.67-0.444 0.767-0.463 1.157-0.241zM12.38 17.615c1.012 0.294 1.909 0.381 3.577 0.347 1.253-0.024 2.024-0.101 3.137-0.299 0.227-0.038 0.424-0.072 0.449-0.072 0.053 0 0.038 1.851-0.019 2.338-0.063 0.516-0.203 0.916-0.352 1.012-0.154 0.101-0.925 0.207-1.957 0.265-2.116 0.115-4.29 0-4.964-0.27-0.366-0.149-0.405-0.342-0.41-2.131 0-1.19 0.010-1.354 0.072-1.33 0.038 0.014 0.25 0.077 0.467 0.14zM13.523 21.713c0.348 0.044 0.723 0.086 0.838 0.101l0.208 0.024-0.184 0.202c-0.236 0.255-0.598 0.766-0.728 1.027-0.149 0.299-0.198 0.318-0.419 0.198l-0.188-0.106-0.106-0.655c-0.056-0.364-0.103-0.621-0.156-0.876l0.020 0.119c-0.044-0.125-0.087-0.125 0.713-0.033zM18.661 21.66c0 0.010-0.024 0.134-0.049 0.275-0.029 0.144-0.149 0.93-0.269 1.749-0.246 1.711-0.41 2.516-0.559 2.786-0.207 0.362-0.704 0.573-1.508 0.641-0.314 0.024-1.258-0.038-1.311-0.087-0.038-0.043 0.79-1.070 0.921-1.137 0.12-0.068 0.154-0.058 0.563 0.154 0.477 0.252 0.719 0.29 0.719 0.131s-0.125-0.314-0.434-0.525c-0.284-0.203-0.385-0.319-0.385-0.454 0-0.038 0.14-0.255 0.308-0.482s0.414-0.588 0.54-0.805l0.237-0.39 0.216 0.029c0.438 0.063 0.554 0.058 0.54-0.038-0.010-0.049-0.092-0.188-0.184-0.304-0.092-0.12-0.164-0.241-0.164-0.265 0-0.092 0.448-0.935 0.593-1.114 0.125-0.154 0.227-0.232 0.227-0.164zM15.649 22.045c0.241 0.159 1.147 0.945 1.204 1.041 0.024 0.044-0.906 1.499-1.089 1.706-0.019 0.024-0.12-0.024-0.221-0.101-0.225-0.169-0.498-0.359-0.777-0.541l-0.061-0.037-0.651-0.429 0.39-0.66c0.694-1.162 0.68-1.142 0.829-1.142 0.077 0 0.246 0.072 0.376 0.164zM17.475 22.218c-0.169 0.207-0.308 0.338-0.366 0.338-0.125 0-0.328-0.111-0.67-0.362l-0.285-0.207 0.57-0.034c0.251-0.009 0.479-0.025 0.706-0.047l-0.046 0.004c0.386-0.062 0.386-0.058 0.092 0.309zM13.831 24.537c0.444 0.173 1.196 0.583 1.412 0.767 0.154 0.125 0.154 0.134 0.092 0.289-0.102 0.203-0.201 0.371-0.31 0.533l0.011-0.017c-0.092 0.138-0.199 0.313-0.3 0.491l-0.023 0.044c-0.154 0.299-0.202 0.323-0.52 0.237-0.342-0.102-0.525-0.275-0.621-0.589-0.131-0.438-0.338-1.677-0.314-1.87 0.010-0.072 0.212-0.029 0.573 0.116z">
            </path>
        </symbol>
        <!-- Icon ice cream crem -->
        <symbol id="icon-ice-crema" viewBox="0 0 32 32">
            <path
                d="M16.108 0.107c0.080 0.215 0.241 1.252 0.241 1.573 0 0.003 0 0.007 0 0.011 0 0.818-0.318 1.561-0.838 2.114l0.001-0.002c-0.449 0.482-0.898 0.749-1.975 1.185-1.198 0.489-1.694 0.783-2.256 1.339-0.569 0.569-0.904 1.191-1.024 1.922-0.134 0.796 0 1.358 0.408 1.68l0.207 0.16-0.328 0.208c-0.662 0.436-1.867 1.46-2.075 1.774-0.402 0.603-0.362 1.164 0.093 1.393l0.214 0.107-0.241 0.228c-0.362 0.341-0.436 0.576-0.382 1.191 0.034 0.409 0.020 0.63-0.073 0.964-0.114 0.436-0.114 0.442 0.033 0.75 0.148 0.301 0.563 0.683 0.938 0.844 0.18 0.080 0.187 0.107 0.228 0.723 0.020 0.356 0.053 1.486 0.080 2.517 0.020 1.031 0.068 1.975 0.107 2.089 0.034 0.12 0.161 0.281 0.276 0.361 0.388 0.268 0.656 0.556 0.829 0.891 0.195 0.382 0.409 1.319 1.058 4.559l0.455 2.276 0.282 0.268c0.535 0.529 1.56 0.77 3.247 0.77 1.693 0 2.704-0.235 3.24-0.764l0.288-0.274 0.414-2.109c0.916-4.612 0.997-4.867 1.714-5.436 0.22-0.181 0.436-0.402 0.475-0.502 0.047-0.114 0.094-0.991 0.127-2.316 0.027-1.178 0.068-2.343 0.094-2.591l0.040-0.448 0.436-0.329c0.548-0.421 0.763-0.803 0.763-1.392-0.006-0.696-0.462-1.46-1.292-2.142l-0.396-0.321 0.195-0.276c0.81-1.117 0.301-2.664-1.205-3.694l-0.455-0.315 0.167-0.174c0.743-0.796 0.864-3.173 0.241-4.827-0.374-0.984-1.232-2.055-2.283-2.845-0.514-0.388-1.934-1.245-2.060-1.245-0.027 0-0.027 0.047-0.006 0.107zM18.036 2.444c0.356 0.348 0.783 0.823 0.951 1.064 0.997 1.393 1.252 3.14 0.649 4.426-0.241 0.522-0.964 1.298-1.634 1.76-1.024 0.71-3.327 1.902-4.933 2.557-2.584 1.052-4.084 1.252-4.258 0.563-0.068-0.261 0.127-0.468 0.951-1.018 0.742-0.508 4.076-2.986 4.136-3.086 0.020-0.027-0.321 0.127-0.749 0.341-1.452 0.737-2.142 0.596-2.108-0.428 0.020-0.743 0.556-1.587 1.298-2.068 0.188-0.12 0.771-0.388 1.307-0.603 1.76-0.709 2.296-1.071 2.892-1.961 0.356-0.529 0.743-1.507 0.77-1.922 0.007-0.147 0.034-0.261 0.053-0.261s0.322 0.288 0.676 0.636zM19.863 10.050c0.489 0.274 0.997 0.743 1.218 1.111 0.389 0.662 0.188 1.325-0.649 2.169-0.91 0.924-2.463 1.808-4.171 2.37-1.573 0.516-3.079 0.756-5.236 0.83l-1.339 0.047 0.871 0.053c1.124 0.074 3.3 0.007 4.143-0.127 2.243-0.356 4.151-1.065 5.516-2.042 0.308-0.221 0.629-0.402 0.716-0.402 0.221 0 1.185 0.924 1.38 1.312 0.107 0.221 0.133 0.382 0.114 0.596-0.1 0.891-1.186 1.366-3.803 1.68-3.2 0.382-7.384 0.007-9.172-0.816-0.844-0.388-0.984-0.61-0.77-1.198 0.067-0.188 0.080-0.409 0.053-0.724-0.034-0.415-0.027-0.468 0.12-0.622 0.335-0.362 0.898-0.569 2.96-1.092 0.723-0.187 1.707-0.482 2.175-0.656 1.138-0.415 3.274-1.493 4.264-2.156 0.931-0.616 1.065-0.643 1.607-0.334zM10.972 18.244c1.406 0.409 2.652 0.529 4.968 0.482 1.74-0.033 2.812-0.14 4.357-0.415 0.316-0.053 0.589-0.1 0.623-0.1 0.074 0 0.053 2.571-0.027 3.247-0.087 0.716-0.282 1.272-0.489 1.406-0.214 0.14-1.285 0.288-2.718 0.368-2.939 0.16-5.958 0-6.895-0.375-0.508-0.207-0.563-0.476-0.569-2.959 0-1.653 0.013-1.881 0.1-1.847 0.053 0.020 0.348 0.107 0.649 0.194zM12.559 23.934c0.482 0.060 1.004 0.12 1.164 0.14l0.289 0.034-0.255 0.281c-0.328 0.355-0.83 1.064-1.011 1.426-0.207 0.415-0.275 0.442-0.582 0.275l-0.261-0.148-0.147-0.91c-0.078-0.506-0.143-0.863-0.216-1.217l0.028 0.165c-0.060-0.173-0.121-0.173 0.99-0.046zM19.696 23.86c0 0.013-0.034 0.187-0.068 0.382-0.040 0.2-0.207 1.292-0.374 2.429-0.341 2.377-0.569 3.494-0.777 3.869-0.288 0.502-0.978 0.796-2.095 0.891-0.436 0.034-1.748-0.053-1.821-0.121-0.053-0.060 1.098-1.486 1.279-1.58 0.167-0.094 0.213-0.080 0.782 0.213 0.663 0.349 0.998 0.403 0.998 0.181s-0.174-0.436-0.603-0.729c-0.395-0.282-0.535-0.443-0.535-0.63 0-0.053 0.194-0.355 0.428-0.669s0.575-0.817 0.749-1.118l0.329-0.542 0.3 0.041c0.609 0.087 0.77 0.080 0.75-0.053-0.013-0.068-0.127-0.261-0.255-0.422-0.127-0.167-0.228-0.335-0.228-0.368 0-0.127 0.622-1.299 0.824-1.547 0.174-0.214 0.315-0.322 0.315-0.228zM15.512 24.396c0.334 0.221 1.593 1.313 1.673 1.446 0.034 0.060-1.258 2.082-1.513 2.37-0.027 0.034-0.167-0.033-0.308-0.14-0.312-0.235-0.692-0.499-1.080-0.752l-0.085-0.052-0.904-0.596 0.542-0.917c0.964-1.613 0.944-1.587 1.151-1.587 0.107 0 0.341 0.1 0.523 0.228zM18.049 24.636c-0.235 0.288-0.428 0.469-0.508 0.469-0.174 0-0.456-0.154-0.931-0.502l-0.396-0.288 0.791-0.047c0.348-0.013 0.665-0.034 0.98-0.065l-0.064 0.005c0.536-0.087 0.536-0.080 0.128 0.428zM12.988 27.857c0.616 0.241 1.66 0.81 1.962 1.065 0.214 0.173 0.214 0.187 0.127 0.401-0.141 0.281-0.279 0.516-0.43 0.741l0.015-0.024c-0.128 0.191-0.277 0.434-0.417 0.682l-0.032 0.061c-0.213 0.415-0.281 0.449-0.723 0.329-0.476-0.141-0.729-0.382-0.863-0.818-0.181-0.609-0.469-2.329-0.436-2.597 0.013-0.1 0.294-0.040 0.796 0.161z">
            </path>
        </symbol>
        <!-- Icon logo -->
        <symbol id="icon-logo" viewBox="0 0 30 32">
            <path fill="#f8d24e"
                d="M15.226 17.082c1.415-3.784-1.515-5.855-3.457-7.217-0.371-0.278-0.742-0.538-1.044-0.776-0.525-0.438-0.921-1.015-1.133-1.674l-0.007-0.026c-0.104-0.319-0.163-0.686-0.163-1.067 0-0.345 0.049-0.679 0.141-0.995l-0.006 0.025c0.009-0.031 0.014-0.067 0.014-0.105 0-0.115-0.050-0.219-0.129-0.29l-0-0c-0.071-0.065-0.167-0.105-0.272-0.105-0.049 0-0.096 0.009-0.14 0.025l0.003-0.001c-0.69 0.273-1.285 0.63-1.811 1.067l0.011-0.009c-0.512 0.391-0.925 0.885-1.215 1.452l-0.011 0.024c-0.277 0.541-0.44 1.18-0.442 1.857v0.001c-0.367 0.287-0.684 0.613-0.952 0.978l-0.010 0.014c-0.445 0.593-0.713 1.341-0.713 2.151 0 0.061 0.002 0.121 0.004 0.181l-0-0.008c-0.58 0.526-1.023 1.192-1.276 1.945l-0.009 0.032c-0.143 0.422-0.226 0.908-0.226 1.414 0 0.33 0.035 0.652 0.102 0.962l-0.005-0.030c-0.236 0.141-0.42 0.354-0.521 0.608-0.056 0.135-0.088 0.292-0.088 0.457 0 0.12 0.017 0.237 0.050 0.347l-0.002-0.009c0.075 0.262 0.235 0.493 0.456 0.657s0.49 0.252 0.767 0.25h0.026v2.151c0 0.219 0.089 0.428 0.245 0.583s0.369 0.241 0.591 0.241h0.65l1.058 9.040c0.022 0.201 0.118 0.387 0.271 0.522s0.351 0.21 0.556 0.21h4.404c0.206-0 0.404-0.075 0.557-0.21s0.251-0.32 0.275-0.522l1.058-9.040h0.65c0.222 0 0.434-0.087 0.591-0.241 0.151-0.148 0.244-0.354 0.245-0.582v-2.152h0.026c0.001 0 0.001 0 0.002 0 0.348 0 0.663-0.139 0.894-0.365l-0 0c0.237-0.234 0.371-0.551 0.371-0.883 0-0.004 0-0.009 0-0.014 0-0.343-0.142-0.654-0.371-0.875l-0-0-0.011 0.003zM5.695 10.216c0.535 1.98 2.599 2.759 4.482 3.455 0.060 0.037 0.134 0.059 0.212 0.059 0.109 0 0.207-0.042 0.281-0.111l-0 0c0.076-0.073 0.124-0.175 0.124-0.289 0-0.010-0-0.019-0.001-0.028l0 0.001c-0.009-0.123-0.072-0.229-0.166-0.295l-0.001-0.001c-0.046-0.033-0.101-0.057-0.16-0.068l-0.003-0c-2.027-0.758-3.939-1.464-4.084-3.488-0.004-0.061-0.006-0.131-0.006-0.203 0-0.514 0.116-1.001 0.324-1.436l-0.009 0.020c0.246-0.518 0.601-0.949 1.038-1.277l0.009-0.006c0.283-0.231 0.586-0.438 0.906-0.615-0.010 0.114-0.015 0.247-0.015 0.381s0.006 0.267 0.017 0.398l-0.001-0.017c0.047 0.615 0.216 1.181 0.484 1.686l-0.011-0.023c0.281 0.531 0.648 0.98 1.087 1.343l0.007 0.006c0.308 0.26 0.691 0.527 1.114 0.812 0.977 0.692 2.087 1.465 2.792 2.511 0.441 0.619 0.704 1.39 0.704 2.223 0 0.538-0.11 1.051-0.309 1.517l0.010-0.025h-1.641c-3.382 0-7.27-0.922-8.038-3.506-0.072-0.242-0.113-0.519-0.113-0.807 0-0.292 0.043-0.573 0.122-0.839l-0.005 0.021c0.164-0.551 0.468-1.018 0.87-1.377l0.003-0.003-0.019-0.018zM8.74 22.693l1.24 1.222-1.241 1.222-1.24-1.23 1.24-1.215zM11.584 25.903l-1.025 1.010-1.24-1.222 1.241-1.219 1.076 1.057-0.052 0.374zM8.74 28.706l-1.241-1.222 1.241-1.222 1.24 1.222-1.241 1.222zM8.172 25.698l-1.241 1.222-1.032-1.018-0.044-0.366 1.077-1.057 1.24 1.219zM6.36 27.484l-0.249 0.245-0.063-0.556 0.312 0.311zM6.23 28.735l0.702-0.692 1.363 1.354c0.007 0.028 0.016 0.054 0.026 0.081h-2.005l-0.086-0.743zM10.552 28.044l0.702 0.692-0.086 0.732h-2.060l1.444-1.424zM11.368 27.729l-0.249-0.245 0.316-0.311-0.067 0.556zM11.74 24.53l-0.62-0.622 0.787-0.776-0.167 1.398zM10.548 23.352l-1.177-1.156h2.354l-1.177 1.157zM6.928 23.352l-1.177-1.156h2.354l-1.177 1.157zM10.938 31.169h-4.4c-0.013-0.002-0.024-0.012-0.026-0.025l-0-0-0.104-0.879h4.664l-0.1 0.879c-0.002 0.015-0.014 0.026-0.029 0.026-0 0-0 0-0 0v0h-0.003zM14.343 18.418h-1.292c-0.011-0.001-0.025-0.002-0.038-0.002-0.105 0-0.201 0.039-0.273 0.104l0-0c-0.081 0.073-0.132 0.178-0.133 0.295v0c0 0 0 0 0 0 0 0.117 0.051 0.223 0.133 0.295l0 0c0.071 0.064 0.166 0.103 0.271 0.103 0.014 0 0.028-0.001 0.042-0.002l-0.002 0h0.46v2.152c-0.001 0.008-0.005 0.014-0.010 0.019l-0 0c-0.005 0.004-0.012 0.007-0.019 0.007-0 0-0.001 0-0.001 0h-9.494c-0 0-0 0-0.001 0-0.007 0-0.014-0.003-0.019-0.007l0 0c-0.005-0.005-0.009-0.011-0.010-0.019v-2.152h7.355c0.104-0.010 0.195-0.058 0.261-0.129l0-0c0.065-0.070 0.105-0.165 0.105-0.268s-0.040-0.198-0.105-0.269l0 0c-0.066-0.071-0.157-0.119-0.259-0.128l-0.002-0h-8.168c-0.012 0.001-0.026 0.002-0.041 0.002-0.12 0-0.229-0.045-0.312-0.119l0 0c-0.092-0.083-0.149-0.202-0.15-0.335v-0c0-0 0-0 0-0.001 0-0.133 0.058-0.252 0.149-0.334l0-0c0.082-0.074 0.191-0.119 0.31-0.119 0.015 0 0.029 0.001 0.044 0.002l-0.002-0h0.843c0.104-0.010 0.195-0.058 0.261-0.129l0-0c0.065-0.070 0.105-0.165 0.105-0.268s-0.040-0.198-0.105-0.269l0 0c-0.066-0.071-0.157-0.119-0.259-0.129l-0.002-0h-0.742c-0.044-0.218-0.069-0.469-0.069-0.726 0-0.339 0.044-0.667 0.125-0.981l-0.006 0.027c0.15-0.579 0.412-1.083 0.764-1.511l-0.005 0.007c0.26 0.798 0.928 1.889 2.599 2.756 1.57 0.808 3.65 1.222 6.178 1.222h1.485c0.012-0.001 0.027-0.002 0.041-0.002 0.12 0 0.229 0.045 0.311 0.119l-0-0c0.092 0.083 0.149 0.202 0.15 0.335v0c0 0 0 0.001 0 0.001 0 0.133-0.058 0.252-0.149 0.334l-0 0c-0.082 0.074-0.191 0.119-0.31 0.119-0.015 0-0.029-0.001-0.044-0.002l0.002 0h0.026z">
            </path>
            <path fill="#f8d24e" style="fill: var(--color1, #f8d24e)"
                d="M16.964 29.152l-0.293 0.448 0.006 0.004 0.287-0.453zM20.113 29.304l0.535-0.012-0.014-0.62-0.611 0.104 0.090 0.528zM20.15 30.951l0.136 0.518 0.409-0.108-0.010-0.422-0.535 0.012zM16.017 31.030l0.121-0.522-0.003-0.001-0.117 0.523zM13.978 30.119l0.347-0.409h-0.001l-0.346 0.409zM13.24 28.446l0.536 0.003v-0.003h-0.536zM13.496 27.274l-0.48-0.236v0.001l0.48 0.235zM15.138 25.872l0.19 0.501 0.002-0.001-0.192-0.5zM20.401 25.736l0.534 0.041 0.035-0.452-0.44-0.109-0.129 0.52zM20.27 27.415l-0.099 0.526 0.587 0.111 0.046-0.596-0.534-0.042zM18.842 26.728c-0.804 0-1.48 0.086-1.973 0.303-0.253 0.111-0.483 0.268-0.651 0.489-0.159 0.209-0.255 0.473-0.255 0.76 0 0.005 0 0.010 0 0.015v-0.001h1.071c-0-0.004-0-0.008-0-0.013 0-0.043 0.014-0.083 0.038-0.115l-0 0c0.028-0.037 0.091-0.095 0.228-0.156 0.288-0.127 0.783-0.212 1.542-0.212v-1.072zM15.963 28.294c0 0.551 0.247 1.006 0.709 1.307l0.585-0.897c-0.16-0.103-0.223-0.221-0.223-0.409h-1.071zM16.677 29.604c0.438 0.277 1.015 0.381 1.663 0.381v-1.071c-0.559 0-0.899-0.095-1.089-0.215l-0.574 0.905zM18.34 29.985c0.635 0 1.256-0.051 1.863-0.154l-0.179-1.056c-0.5 0.088-1.077 0.139-1.665 0.139-0.007 0-0.013 0-0.020-0h0.001v1.071zM19.578 29.315l0.036 1.648 1.071-0.024-0.037-1.647-1.071 0.024zM20.013 30.433c-0.612 0.161-1.288 0.244-2.029 0.244v1.071c0.821 0 1.589-0.092 2.302-0.279l-0.273-1.036zM17.984 30.677c-0.757 0-1.369-0.060-1.846-0.169l-0.241 1.044c0.582 0.134 1.281 0.197 2.087 0.197v-1.071zM16.134 30.507c-0.511-0.114-0.881-0.236-1.127-0.356l-0.47 0.962c0.353 0.172 0.814 0.316 1.363 0.439l0.234-1.046zM15.008 30.151c-0.26-0.126-0.485-0.273-0.688-0.444l0.005 0.004-0.693 0.817c0.263 0.222 0.561 0.417 0.881 0.574l0.026 0.011 0.47-0.962zM14.323 29.71c-0.364-0.308-0.55-0.709-0.547-1.262l-1.071-0.005c-0.004 0.842 0.301 1.556 0.927 2.085l0.692-0.818zM13.776 28.446c0-0.36 0.070-0.669 0.202-0.936l-0.962-0.471c-0.211 0.43-0.311 0.902-0.311 1.407h1.071zM13.977 27.51c0.243-0.495 0.673-0.88 1.351-1.137l-0.38-1.002c-0.884 0.336-1.549 0.886-1.933 1.666l0.961 0.473zM15.331 26.372c0.712-0.273 1.507-0.414 2.392-0.414v-1.071c-0.999 0-1.926 0.159-2.776 0.485l0.384 1zM17.723 25.958c0.901 0 1.751 0.1 2.549 0.298l0.258-1.040c-0.89-0.221-1.826-0.33-2.807-0.33v1.071zM19.867 25.695l-0.13 1.679 1.068 0.084 0.131-1.679-1.068-0.083zM20.37 26.889c-0.557-0.105-1.068-0.161-1.528-0.161v1.071c0.377 0 0.818 0.046 1.328 0.142l0.199-1.053zM25.596 27.744l-0.003 0.536 0.544 0.003-0.005-0.544-0.536 0.005zM25.366 27.049l-0.364 0.393 0.005 0.004 0.359-0.397zM24.032 27.102l0.371 0.386 0.004-0.004-0.375-0.383zM23.708 27.734l-0.529-0.087-0.101 0.619 0.627 0.003 0.003-0.536zM27.646 30.59l0.324 0.427 0.192-0.146 0.018-0.241-0.534-0.039zM26.49 31.019l-0.115-0.523-0.003 0 0.118 0.523zM22.473 30.873l-0.182 0.504 0.004 0.001 0.178-0.505zM21.558 30.386l-0.332 0.42 0.003 0.002 0.003 0.002 0.326-0.425zM20.946 29.617l-0.48 0.237 0.001 0.002 0.479-0.24zM21.573 26.369v0zM26.469 25.788l0.214-0.49-0.005-0.002-0.209 0.493zM27.699 26.918l-0.482 0.234 0.001 0.003 0.48-0.237zM27.908 27.855l0.534 0.038 0.001-0.019v-0.020h-0.536zM27.845 28.718l-0.002 0.536 0.501 0.002 0.036-0.499-0.534-0.039zM23.603 28.697l0.003-0.536-0.699-0.003 0.178 0.676 0.518-0.137zM24.21 29.445l-0.263 0.466 0.002 0.001 0.261-0.468zM27.463 29.262v-0.536h-0.107l-0.098 0.041 0.206 0.495zM27.745 29.262l0.534 0.039 0.043-0.575h-0.577v0.536zM26.132 27.739c-0.004-0.387-0.094-0.803-0.406-1.087l-0.72 0.794c-0.006-0.005 0.006 0.001 0.021 0.047 0.016 0.049 0.032 0.131 0.033 0.257l1.071-0.011zM25.73 26.657c-0.281-0.261-0.65-0.347-1.013-0.347v1.071c0.208 0 0.272 0.050 0.284 0.061l0.729-0.785zM24.717 26.309c-0.399 0-0.77 0.125-1.060 0.409l0.75 0.766c0.059-0.058 0.144-0.103 0.31-0.103v-1.072zM23.661 26.715c-0.251 0.242-0.425 0.563-0.481 0.923l-0.001 0.009 1.057 0.174c0.025-0.149 0.081-0.252 0.166-0.334l-0.742-0.773zM23.705 28.27l1.889 0.010 0.006-1.071-1.889-0.011-0.006 1.071zM27.323 30.163c-0.118 0.089-0.404 0.213-0.948 0.333l0.23 1.046c0.565-0.125 1.050-0.287 1.365-0.525l-0.647-0.854zM26.372 30.497c-0.449 0.109-0.965 0.173-1.496 0.175h-0.002v1.071c0.566 0 1.145-0.068 1.735-0.202l-0.236-1.045zM24.874 30.672c-0.505 0-0.921-0.024-1.252-0.068l-0.143 1.062c0.394 0.053 0.861 0.078 1.395 0.078v-1.071zM23.622 30.603c-0.364-0.050-0.692-0.133-1.004-0.247l0.034 0.011-0.357 1.010c0.389 0.138 0.784 0.233 1.184 0.288l0.143-1.062zM22.656 30.369c-0.314-0.113-0.568-0.251-0.772-0.408l-0.652 0.85c0.305 0.234 0.661 0.42 1.058 0.565l0.365-1.007zM21.89 29.966c-0.194-0.158-0.351-0.354-0.461-0.578l-0.004-0.010-0.958 0.479c0.186 0.377 0.442 0.694 0.753 0.945l0.005 0.004 0.666-0.84zM21.426 29.38c-0.113-0.228-0.18-0.521-0.18-0.897h-1.071c0 0.502 0.090 0.965 0.29 1.372l0.96-0.475zM21.246 28.482c0-0.377 0.068-0.71 0.196-1.006l-0.983-0.426c-0.192 0.443-0.285 0.923-0.285 1.432h1.071zM21.442 27.477c0.135-0.311 0.3-0.542 0.487-0.707l-0.713-0.8c-0.322 0.287-0.572 0.653-0.757 1.082l0.983 0.426zM21.93 26.769c0.576-0.513 1.454-0.811 2.719-0.811v-1.071c-1.419 0-2.591 0.333-3.432 1.083l0.713 0.799zM24.649 25.958c0.568 0 1.104 0.108 1.611 0.323l0.418-0.986c-0.593-0.258-1.284-0.409-2.010-0.409-0.007 0-0.014 0-0.021 0h0.001v1.071zM26.255 26.279c0.474 0.207 0.78 0.5 0.961 0.873l0.963-0.468c-0.307-0.632-0.82-1.092-1.497-1.387l-0.428 0.982zM27.218 27.156c0.1 0.202 0.154 0.432 0.154 0.699h1.071c0-0.417-0.086-0.811-0.265-1.174l-0.96 0.474zM27.374 27.815l-0.063 0.863 1.068 0.078 0.063-0.863-1.068-0.077zM27.848 28.182l-4.242-0.021-0.005 1.071 4.242 0.021 0.005-1.071zM23.085 28.833c0.126 0.475 0.432 0.834 0.862 1.078l0.527-0.933c-0.212-0.12-0.31-0.258-0.352-0.418l-1.036 0.274zM23.948 29.912c0.434 0.243 0.978 0.34 1.585 0.34v-1.071c-0.509 0-0.848-0.084-1.062-0.204l-0.523 0.935zM25.533 30.252c0.651 0 1.367-0.176 2.136-0.496l-0.412-0.989c-0.688 0.287-1.26 0.414-1.724 0.414v1.071zM27.463 29.797h0.283v-1.071h-0.282v1.071zM27.212 29.221l-0.1 1.329 1.068 0.080 0.099-1.329-1.068-0.080z">
            </path>
        </symbol>
<!-- Icon telegram -->
      <symbol id="icon-telegram" viewBox="0 0 32 32">
<path fill="#f8d24e" d="M32 16c0 8.837-7.163 16-16 16s-16-7.163-16-16c0-8.837 7.163-16 16-16s16 7.163 16 16z"></path>
<path d="M12.869 18.376l-0.318 4.169c0.455 0 0.651-0.183 0.888-0.401l2.131-1.901 4.414 3.018c0.809 0.421 1.38 0.199 1.598-0.696l2.899-12.673c0.257-1.117-0.433-1.554-1.222-1.28l-17.032 6.086c-1.162 0.422-1.144 1.026-0.198 1.301l4.355 1.264 10.115-5.907c0.475-0.295 0.908-0.132 0.552 0.163l-8.182 6.856z"></path>
</symbol>

     

        <!-- Icon cow -->
        <symbol id="icon-cow" viewBox="0 0 23 24">
            <path
                d="M4.501 0.583c-0.19 0.165-0.734 1.3-0.93 1.919-0.232 0.768-0.312 1.344-0.28 2.139 0.042 1.135 0.328 1.996 0.956 2.895 0.164 0.236 0.296 0.439 0.296 0.455 0 0.011-0.1 0.022-0.227 0.022-0.544 0-1.564 0.181-2.346 0.417-1.242 0.373-1.971 1.025-1.971 1.755 0 0.258 0.232 0.696 0.481 0.921 0.481 0.433 1.532 0.845 2.663 1.042 0.391 0.071 1.553 0.192 1.812 0.197 0.048 0 0.063 0.252 0.063 1.080 0 0.713 0.026 1.267 0.079 1.607 0.19 1.217 0.782 2.506 1.564 3.416l0.269 0.313-0.18 0.291c-0.264 0.411-0.365 0.724-0.396 1.19-0.079 1.119 0.618 2.111 1.965 2.808 2.568 1.333 6.556 0.812 8.051-1.053 0.729-0.91 0.814-1.952 0.238-2.895l-0.18-0.291 0.322-0.389c0.602-0.724 0.993-1.448 1.289-2.363 0.248-0.779 0.343-1.53 0.343-2.72 0-0.543 0.016-0.993 0.042-0.993 0.243-0.006 1.411-0.132 1.78-0.197 1.136-0.197 2.166-0.603 2.663-1.042 0.248-0.225 0.481-0.663 0.481-0.921 0-0.812-0.824-1.47-2.356-1.864-0.502-0.132-1.448-0.291-1.907-0.318l-0.217-0.016 0.238-0.329c0.296-0.4 0.666-1.179 0.808-1.689 0.402-1.475 0.153-3.192-0.708-4.831-0.359-0.68-0.608-0.839-0.898-0.57-0.111 0.104-0.159 0.247-0.264 0.762-0.328 1.64-0.935 2.939-1.823 3.899l-0.391 0.428h-8.358l-0.349-0.378c-0.866-0.954-1.495-2.303-1.823-3.948-0.106-0.515-0.153-0.658-0.264-0.762-0.174-0.159-0.343-0.154-0.539 0.016zM5.177 3.835c0.28 0.614 0.629 1.19 1.041 1.722l0.328 0.422-0.343 0.258c-0.322 0.247-0.623 0.598-0.856 0.998l-0.1 0.181-0.254-0.345c-0.866-1.195-1.083-2.66-0.623-4.179 0.222-0.735 0.217-0.729 0.417-0.093 0.095 0.307 0.275 0.773 0.391 1.036zM18.929 2.678c0.217 0.653 0.301 1.174 0.301 1.848 0 0.998-0.264 1.843-0.819 2.599l-0.248 0.34-0.185-0.313c-0.217-0.384-0.586-0.784-0.925-1.014-0.143-0.093-0.254-0.186-0.254-0.197 0-0.016 0.1-0.143 0.227-0.28 0.586-0.653 1.215-1.826 1.527-2.835 0.095-0.313 0.19-0.57 0.206-0.57s0.095 0.192 0.169 0.422zM16.23 6.687c0.586 0.247 1.146 0.954 1.236 1.552 0.048 0.329 0.158 0.537 0.301 0.57 0.063 0.011 0.502 0.049 0.972 0.082 1.669 0.11 2.985 0.466 3.545 0.954 0.259 0.23 0.232 0.422-0.079 0.658-0.623 0.472-1.971 0.828-3.344 0.888-0.909 0.038-1.099 0.066-1.22 0.192-0.090 0.093-0.1 0.192-0.1 1.185 0 1.344-0.069 2.117-0.238 2.742-0.238 0.85-0.708 1.755-1.257 2.396l-0.227 0.263-0.47-0.28c-0.571-0.34-1.104-0.559-1.743-0.707-2.002-0.477-4.216-0.186-5.706 0.751l-0.343 0.219-0.217-0.258c-0.296-0.345-0.761-1.086-0.946-1.503-0.407-0.943-0.528-1.711-0.528-3.4 0-1.64 0.085-1.519-1.131-1.585-1.553-0.082-2.737-0.362-3.482-0.834-0.549-0.351-0.46-0.664 0.306-1.031 0.734-0.356 1.743-0.57 3.143-0.658 1.088-0.071 1.115-0.088 1.215-0.614 0.148-0.795 0.734-1.453 1.474-1.662 0.185-0.055 1.22-0.066 4.39-0.060l4.147 0.011 0.301 0.126zM13.261 18.038c1.294 0.318 2.261 0.91 2.679 1.645 0.1 0.17 0.143 0.346 0.164 0.614 0.021 0.334 0.005 0.417-0.122 0.691-0.586 1.245-2.742 2.067-4.934 1.881-2.636-0.219-4.369-1.689-3.688-3.131 0.37-0.779 1.622-1.525 2.943-1.744 0.217-0.033 0.433-0.071 0.475-0.082s0.518-0.011 1.057 0c0.734 0.016 1.088 0.049 1.426 0.126z">
            </path>
            <path
                d="M8.020 9.434c-0.328 0.11-0.549 0.252-0.845 0.548-0.259 0.247-0.28 0.537-0.063 0.713 0.201 0.165 0.391 0.143 0.634-0.071 0.306-0.269 0.544-0.378 0.84-0.378 0.296-0.005 0.523 0.099 0.84 0.378 0.243 0.214 0.433 0.236 0.634 0.071 0.106-0.088 0.137-0.159 0.137-0.324 0-0.17-0.037-0.247-0.222-0.433-0.523-0.526-1.3-0.729-1.955-0.505z">
            </path>
            <path
                d="M14.18 9.429c-0.338 0.126-0.771 0.411-0.946 0.625-0.169 0.208-0.174 0.444 0 0.62 0.174 0.186 0.386 0.175 0.639-0.033 0.623-0.515 1.088-0.532 1.664-0.055 0.148 0.126 0.317 0.225 0.37 0.225 0.259 0 0.47-0.23 0.47-0.505 0-0.175-0.438-0.581-0.835-0.773-0.438-0.214-0.961-0.252-1.363-0.104z">
            </path>
            <path
                d="M8.786 19.579c-0.153 0.148-0.206 0.362-0.127 0.532 0.058 0.137 0.148 0.192 0.513 0.291 0.164 0.044 0.232 0.099 0.291 0.236 0.074 0.181 0.079 0.181 0.486 0.197l0.407 0.016v-0.154c-0.005-0.219-0.127-0.537-0.285-0.757-0.185-0.252-0.507-0.417-0.872-0.45-0.248-0.022-0.312-0.011-0.412 0.088z">
            </path>
            <path
                d="M13.831 19.541c-0.264 0.071-0.645 0.428-0.75 0.707-0.048 0.126-0.095 0.351-0.1 0.499-0.011 0.236 0.011 0.291 0.137 0.406 0.312 0.274 0.724 0.060 0.724-0.378 0-0.214 0.158-0.362 0.438-0.417 0.296-0.055 0.402-0.176 0.407-0.455 0-0.367-0.328-0.51-0.856-0.362z">
            </path>
        </symbol>
        <!-- Icon weight(гиря) -->
        <symbol id="icon-weight" viewBox="0 0 24 24">
            <path
                d="M10.633 0.41c-2.981 0.442-5.435 2.097-6.338 4.264-0.288 0.685-0.366 1.105-0.366 1.93 0.006 0.609 0.028 0.836 0.122 1.164 0.194 0.647 0.332 0.976 0.621 1.439l0.266 0.431-0.299 0.367c-2.366 2.943-2.626 7.083-0.654 10.345 0.737 1.224 1.939 2.426 3.114 3.127l0.349 0.205 9.557-0.081 0.227-0.124c0.792-0.447 1.911-1.445 2.537-2.253 0.942-1.229 1.557-2.663 1.817-4.215 0.089-0.555 0.089-2.199-0.006-2.722-0.283-1.612-0.886-2.992-1.839-4.215-0.183-0.232-0.327-0.426-0.327-0.442 0-0.011 0.1-0.178 0.216-0.367 0.271-0.431 0.515-0.986 0.648-1.472 0.15-0.539 0.15-1.887 0-2.426-0.532-1.914-2.127-3.509-4.382-4.388-0.632-0.248-1.712-0.512-2.41-0.598-0.648-0.075-2.249-0.059-2.853 0.032zM14.007 1.289c2.959 0.577 5.125 2.388 5.524 4.62 0.089 0.501 0.033 1.353-0.116 1.827-0.15 0.464-0.427 1.008-0.754 1.472-0.133 0.189-0.244 0.404-0.244 0.474s0.116 0.253 0.283 0.437c1.385 1.536 2.116 3.461 2.116 5.542-0.006 2.366-0.914 4.442-2.665 6.070-0.299 0.28-0.726 0.631-0.953 0.782l-0.416 0.28-9.158 0.038-0.355-0.226c-1.285-0.836-2.443-2.216-3.086-3.682-0.809-1.854-0.892-4.005-0.233-5.935 0.349-1.003 0.814-1.822 1.524-2.685 0.288-0.345 0.421-0.55 0.421-0.647 0-0.081-0.144-0.345-0.332-0.62-0.665-0.965-0.936-2.038-0.776-3.051 0.166-1.024 0.632-1.865 1.49-2.701 1.119-1.084 2.681-1.8 4.515-2.070 0.759-0.113 2.438-0.070 3.213 0.075z">
            </path>
            <path
                d="M10.882 2.237c-2.272 0.372-4.050 1.633-4.632 3.288-0.133 0.372-0.155 0.517-0.155 1.051s0.022 0.679 0.155 1.051c0.083 0.237 0.238 0.566 0.343 0.733 0.288 0.464 0.416 0.48 0.986 0.135 0.853-0.523 1.834-0.906 2.853-1.116 0.687-0.14 2.006-0.194 2.754-0.108 1.169 0.135 2.438 0.555 3.452 1.154 0.288 0.167 0.582 0.307 0.654 0.307 0.421 0 0.958-1.213 0.958-2.156 0-2.097-2.006-3.892-4.848-4.339-0.604-0.097-1.939-0.097-2.521 0zM13.625 3.1c0.953 0.205 1.828 0.593 2.488 1.105 0.886 0.685 1.363 1.639 1.285 2.561-0.028 0.367-0.166 0.862-0.249 0.916-0.022 0.011-0.332-0.119-0.687-0.291-0.737-0.356-1.573-0.641-2.421-0.825-0.515-0.108-0.731-0.124-1.884-0.119-1.136 0-1.374 0.016-1.867 0.119-0.853 0.183-1.518 0.41-2.338 0.798-0.826 0.394-0.781 0.399-0.931-0.086-0.194-0.631-0.072-1.466 0.305-2.097 0.199-0.334 0.748-0.889 1.147-1.164 0.759-0.523 1.424-0.76 2.853-1.019 0.294-0.054 1.922 0.022 2.299 0.102z">
            </path>
            <path
                d="M12.722 10.054c-0.155 0.194-0.155 0.377 0.006 0.534 0.105 0.102 0.211 0.129 0.593 0.156 0.742 0.054 1.452 0.27 2.089 0.636 0.454 0.27 1.147 0.922 1.457 1.391 0.46 0.674 0.776 1.639 0.776 2.35 0 0.248 0.022 0.323 0.139 0.431 0.177 0.178 0.41 0.178 0.582 0 0.122-0.124 0.127-0.156 0.094-0.685-0.155-2.609-2.388-4.787-5.058-4.932l-0.554-0.032-0.122 0.151z">
            </path>
        </symbol>
        <!-- Ice cream icon -->
        <symbol id="icon-ice-crema" viewBox="0 0 24 24">
            <path
                d="M12.081 0.080c0.060 0.161 0.181 0.939 0.181 1.18 0 0.597-0.221 1.155-0.628 1.592-0.336 0.361-0.673 0.562-1.481 0.889-0.899 0.367-1.27 0.587-1.692 1.004-0.427 0.427-0.678 0.894-0.768 1.441-0.1 0.597 0 1.019 0.306 1.26l0.156 0.121-0.246 0.156c-0.497 0.326-1.401 1.095-1.556 1.331-0.301 0.452-0.271 0.874 0.070 1.044l0.161 0.080-0.181 0.171c-0.271 0.256-0.326 0.432-0.286 0.894 0.025 0.306 0.015 0.472-0.055 0.723-0.085 0.326-0.085 0.331 0.025 0.562 0.11 0.226 0.422 0.512 0.703 0.633 0.136 0.060 0.141 0.080 0.171 0.542 0.015 0.266 0.040 1.115 0.060 1.888 0.015 0.773 0.050 1.481 0.080 1.567 0.025 0.090 0.12 0.211 0.206 0.271 0.291 0.201 0.492 0.417 0.623 0.668 0.146 0.286 0.306 0.989 0.793 3.419l0.341 1.707 0.211 0.201c0.402 0.397 1.17 0.577 2.435 0.577 1.27 0 2.028-0.176 2.43-0.572l0.216-0.206 0.311-1.582c0.688-3.459 0.748-3.65 1.285-4.077 0.166-0.136 0.326-0.301 0.356-0.377 0.035-0.085 0.070-0.743 0.095-1.737 0.020-0.884 0.050-1.757 0.070-1.943l0.030-0.336 0.326-0.246c0.412-0.316 0.572-0.603 0.572-1.044-0.005-0.522-0.346-1.095-0.969-1.607l-0.296-0.241 0.146-0.206c0.608-0.838 0.226-1.998-0.904-2.772l-0.341-0.236 0.126-0.131c0.557-0.597 0.648-2.38 0.181-3.62-0.281-0.738-0.924-1.541-1.712-2.134-0.387-0.291-1.451-0.934-1.546-0.934-0.020 0-0.020 0.035-0.005 0.080zM13.527 1.833c0.266 0.261 0.587 0.618 0.713 0.798 0.748 1.044 0.939 2.355 0.487 3.319-0.181 0.392-0.723 0.974-1.225 1.32-0.768 0.532-2.495 1.426-3.7 1.918-1.938 0.788-3.063 0.939-3.193 0.422-0.050-0.196 0.095-0.351 0.713-0.763 0.557-0.382 3.058-2.239 3.103-2.315 0.015-0.020-0.241 0.095-0.562 0.256-1.090 0.552-1.607 0.447-1.582-0.321 0.015-0.557 0.417-1.19 0.974-1.551 0.141-0.090 0.577-0.291 0.979-0.452 1.321-0.532 1.722-0.803 2.169-1.471 0.266-0.397 0.557-1.13 0.577-1.441 0.005-0.11 0.025-0.196 0.040-0.196s0.241 0.216 0.507 0.477zM14.898 7.536c0.367 0.206 0.748 0.557 0.914 0.833 0.291 0.497 0.141 0.994-0.487 1.627-0.683 0.693-1.848 1.356-3.128 1.777-1.18 0.387-2.31 0.567-3.926 0.623l-1.004 0.035 0.653 0.040c0.844 0.055 2.475 0.005 3.108-0.095 1.682-0.266 3.113-0.798 4.137-1.531 0.231-0.166 0.472-0.301 0.537-0.301 0.166 0 0.889 0.693 1.034 0.984 0.080 0.166 0.1 0.286 0.085 0.447-0.075 0.668-0.889 1.024-2.852 1.26-2.4 0.286-5.538 0.005-6.879-0.613-0.633-0.291-0.738-0.457-0.577-0.899 0.050-0.141 0.060-0.306 0.040-0.542-0.025-0.311-0.020-0.351 0.090-0.467 0.251-0.271 0.673-0.427 2.219-0.818 0.542-0.141 1.28-0.362 1.632-0.492 0.854-0.311 2.455-1.12 3.198-1.617 0.698-0.462 0.798-0.482 1.205-0.251zM8.23 13.682c1.054 0.306 1.988 0.397 3.726 0.362 1.305-0.025 2.109-0.105 3.269-0.311 0.236-0.040 0.442-0.075 0.467-0.075 0.055 0 0.040 1.928-0.020 2.435-0.065 0.537-0.211 0.954-0.367 1.054-0.161 0.105-0.964 0.216-2.038 0.276-2.204 0.12-4.469 0-5.172-0.281-0.382-0.156-0.422-0.356-0.427-2.219 0-1.24 0.010-1.411 0.075-1.386 0.040 0.015 0.261 0.080 0.487 0.146zM9.42 17.95c0.361 0.045 0.753 0.090 0.874 0.105l0.216 0.025-0.191 0.211c-0.246 0.266-0.623 0.798-0.758 1.069-0.156 0.311-0.206 0.331-0.437 0.206l-0.196-0.11-0.11-0.683c-0.060-0.372-0.126-0.728-0.141-0.788-0.045-0.131-0.090-0.131 0.743-0.035zM14.772 17.895c0 0.010-0.025 0.141-0.050 0.286-0.030 0.151-0.156 0.969-0.281 1.823-0.256 1.782-0.427 2.621-0.582 2.902-0.216 0.377-0.733 0.597-1.572 0.668-0.326 0.025-1.31-0.040-1.366-0.090-0.040-0.045 0.823-1.115 0.959-1.185 0.126-0.070 0.161-0.060 0.587 0.161 0.497 0.261 0.748 0.301 0.748 0.136s-0.131-0.326-0.452-0.547c-0.296-0.211-0.402-0.331-0.402-0.472 0-0.040 0.146-0.266 0.321-0.502s0.432-0.613 0.562-0.838l0.246-0.407 0.226 0.030c0.457 0.065 0.577 0.060 0.562-0.040-0.010-0.050-0.095-0.196-0.191-0.316-0.095-0.126-0.171-0.251-0.171-0.276 0-0.095 0.467-0.974 0.618-1.16 0.131-0.161 0.236-0.241 0.236-0.171zM11.634 18.296c0.251 0.166 1.195 0.984 1.255 1.084 0.025 0.045-0.944 1.562-1.135 1.777-0.020 0.025-0.126-0.025-0.231-0.105-0.105-0.085-0.497-0.356-0.874-0.603l-0.678-0.447 0.407-0.688c0.723-1.21 0.708-1.19 0.864-1.19 0.080 0 0.256 0.075 0.392 0.171zM13.537 18.477c-0.176 0.216-0.321 0.351-0.382 0.351-0.131 0-0.341-0.115-0.698-0.377l-0.296-0.216 0.592-0.035c0.321-0.015 0.633-0.035 0.688-0.045 0.402-0.065 0.402-0.060 0.095 0.321zM9.742 20.892c0.462 0.181 1.245 0.608 1.471 0.798 0.161 0.131 0.161 0.141 0.095 0.301-0.040 0.090-0.176 0.331-0.311 0.537-0.131 0.201-0.281 0.452-0.336 0.557-0.161 0.311-0.211 0.336-0.542 0.246-0.356-0.105-0.547-0.286-0.648-0.613-0.136-0.457-0.351-1.747-0.326-1.948 0.010-0.075 0.221-0.030 0.598 0.121z">
            </path>
        </symbol>
    </defs>
</svg>